<svg width="40" height="33" viewBox="0 0 40 33" fill="none" xmlns="http://www.w3.org/2000/svg">
<path d="M13.7095 6.50412C10.1933 10.0203 7.28229 12.9939 7.24055 13.1192C7.19881 13.2548 7.23012 13.4635 7.32402 13.6408C7.40749 13.7974 11.7375 18.19 16.9544 23.3965C25.6875 32.1296 26.4596 32.8704 26.7726 32.8704C27.0857 32.8704 27.6491 32.3487 33.5129 26.4744C37.0291 22.9582 39.9401 19.9846 39.9819 19.8594C40.0236 19.7238 39.9923 19.5046 39.8984 19.3377C39.8149 19.1812 38.0829 17.3866 36.0587 15.3624C32.5947 11.9088 32.3443 11.6897 32 11.6897C31.5409 11.6897 31.2801 11.9506 31.2801 12.4097C31.2801 12.7122 31.5931 13.0566 34.2746 15.738L37.2586 18.7325L35.5997 18.7638C34.6919 18.7743 31.4574 18.7743 28.4108 18.7638L22.8808 18.7325L22.4426 18.4821C22.1922 18.3361 21.8688 18.0439 21.7122 17.8144L21.4201 17.397L21.3888 12.1697C21.3784 9.28994 21.3784 6.0346 21.3888 4.91818L21.4201 2.89402L24.2477 5.72158C25.9797 7.45359 27.19 8.58045 27.3569 8.62218C27.8682 8.74739 28.3795 8.17353 28.2125 7.65184C28.1812 7.5475 26.4909 5.80505 24.4668 3.78089C21.128 0.452506 20.7523 0.10819 20.4498 0.10819C20.1367 0.10819 19.5629 0.650748 13.7095 6.50412ZM19.8863 7.58923L19.855 12.5766L14.8781 12.6079C12.134 12.6183 9.89074 12.5975 9.89074 12.5557C9.89074 12.4514 19.7298 2.6123 19.8342 2.6123C19.8759 2.6123 19.8968 4.85557 19.8863 7.58923ZM19.9281 15.8841C19.9594 17.564 19.9802 17.7309 20.2202 18.2109C20.5645 18.9099 21.2532 19.5777 21.9731 19.9116C22.5261 20.1724 22.6826 20.1933 24.3207 20.2246L26.0631 20.2663V25.2641C26.0631 28.0082 26.0423 30.2619 26.0214 30.2619C25.9692 30.2619 10.2351 14.5382 10.0055 14.2669C9.8803 14.0999 10.2142 14.0895 14.8781 14.0895H19.8968L19.9281 15.8841ZM37.5403 20.2767C37.5403 20.2872 35.2866 22.5513 32.5321 25.3058L27.5239 30.3141V25.2745V20.2454H32.5321C35.2866 20.2454 37.5403 20.2559 37.5403 20.2767Z" fill="white"/>
<path d="M0.437711 8.24654C0.322939 8.28827 0.155998 8.47608 0.0829614 8.66389C-0.0422444 8.95603 -0.0318106 9.01864 0.155998 9.26905C0.427277 9.63423 0.656821 9.6864 2.01322 9.6864C3.36961 9.6864 3.59916 9.63423 3.87044 9.26905C4.05824 9.01864 4.05824 8.95603 3.94347 8.66389C3.87044 8.47608 3.69306 8.28827 3.55742 8.2361C3.24441 8.12133 0.740292 8.12133 0.437711 8.24654Z" fill="white"/>
<path d="M5.35204 8.39269C4.83035 8.91438 5.1225 9.52998 5.96764 9.65519C6.21805 9.69692 7.02145 9.70735 7.73095 9.69692C8.83694 9.66562 9.06648 9.62388 9.25429 9.45694C9.51514 9.2274 9.54644 8.69527 9.32733 8.39269C9.19169 8.21532 9.01431 8.19445 7.39707 8.16315L5.61289 8.13185L5.35204 8.39269Z" fill="white"/>
<path d="M29.3498 9.75946C29.0577 10.0412 29.0264 10.229 29.2037 10.5733C29.3707 10.8863 29.4959 10.9594 29.8819 10.9594C30.2889 10.9594 30.5497 10.6776 30.5497 10.2499C30.5497 9.56122 29.8298 9.26907 29.3498 9.75946Z" fill="white"/>
<path d="M0.28121 16.5728C0.124703 16.7084 0.0516663 16.8858 0.0516663 17.1153C0.0516663 17.3449 0.124703 17.5223 0.28121 17.6579C0.50032 17.8248 0.750732 17.8457 3.04617 17.8457C5.93634 17.8457 6.03024 17.8248 6.03024 17.1153C6.03024 16.4058 5.93634 16.385 3.04617 16.385C0.750732 16.385 0.50032 16.4058 0.28121 16.5728Z" fill="white"/>
<path d="M7.17796 16.5936C6.72931 17.0423 7.06319 17.8457 7.67878 17.8457C8.04397 17.8457 8.43002 17.4597 8.43002 17.1049C8.43002 16.5102 7.59531 16.1763 7.17796 16.5936Z" fill="white"/>
<path d="M5.82156 20.7359C5.3729 20.8924 5.2477 21.6437 5.62331 21.9775C5.82156 22.1653 6.03023 22.1758 8.29437 22.1758H10.7463L10.9967 21.8836C11.3202 21.508 11.3097 21.2367 10.9863 20.9237L10.7359 20.6629L8.35697 20.6733C7.05275 20.6733 5.90503 20.7046 5.82156 20.7359Z" fill="white"/>
<path d="M2.441 25.8902C2.09669 26.1615 2.06538 26.6936 2.38883 26.9857C2.59751 27.1736 2.86879 27.184 8.12743 27.2153C11.1637 27.2257 13.793 27.2049 13.9808 27.1527C14.1582 27.1109 14.3982 26.944 14.5129 26.7979C14.7007 26.5475 14.7007 26.4849 14.586 26.1928C14.5129 26.005 14.3355 25.8172 14.1999 25.765C14.0538 25.7128 11.4767 25.6711 8.33611 25.6711C2.81662 25.6711 2.71228 25.6711 2.441 25.8902Z" fill="white"/>
</svg>
