<svg width="40" height="41" viewBox="0 0 40 41" fill="none" xmlns="http://www.w3.org/2000/svg">
<path d="M25.3832 0.93212C20.5451 1.36054 16.3445 4.16095 14.4532 8.18394C14.0039 9.13482 13.7949 9.76178 13.6173 10.5873C13.0112 13.5235 13.5859 16.4493 15.2578 18.9676C16.0311 20.117 16.0311 20.117 15.4563 21.559C15.0488 22.5517 14.5055 23.5026 13.983 24.1296C13.5128 24.6834 13.3351 25.1014 13.3978 25.4357C13.4501 25.7388 13.983 26.209 14.2651 26.209C14.3801 26.209 15.0175 25.9582 15.6967 25.6447C17.4104 24.861 19.1449 24.2445 20.2839 24.0042L21.2557 23.8056L22.0185 24.0669C23.5859 24.6102 24.7144 24.7774 26.6893 24.7774C29.3121 24.7774 30.8691 24.4222 33.1157 23.325C38.9359 20.4619 41.496 14.14 39.1136 8.53921C37.3894 4.48488 32.9485 1.37099 28.3612 0.984366C26.7625 0.848525 26.4072 0.838076 25.3832 0.93212ZM29.333 2.39502C34.0143 3.36681 37.4835 6.51205 38.4971 10.6918C38.8105 11.9561 38.7896 13.8579 38.4448 15.1954C37.9641 17.0972 37.1595 18.4661 35.6339 20.0021C34.5995 21.0261 33.9098 21.5277 32.541 22.2174C30.8691 23.0637 28.6016 23.5967 26.6789 23.5967C25.5086 23.5967 23.6277 23.2832 22.5201 22.8966C21.5378 22.5622 20.7437 22.5622 19.4271 22.9175C18.5389 23.1473 16.9192 23.7221 15.9057 24.1609C15.6862 24.255 15.5086 24.2968 15.5086 24.255C15.5086 24.2027 15.6758 23.8997 15.8743 23.5653C16.5849 22.395 17.1805 20.7127 17.1805 19.9185C17.1805 19.6782 17.0655 19.3856 16.8565 19.093C15.7489 17.4943 15.3832 16.7733 14.9757 15.394C14.7562 14.6625 14.7249 14.3386 14.7249 12.8339C14.7249 10.8694 14.8294 10.3992 15.5608 8.80045C16.146 7.53608 16.7207 6.71058 17.6925 5.7388C19.3539 4.07736 21.5483 2.91749 24.0248 2.39502C25.4041 2.10244 27.9015 2.10244 29.333 2.39502Z" fill="white"/>
<path d="M25.9892 4.2654C23.6486 4.75651 22.2379 7.02401 22.9067 9.23927C23.0321 9.63634 23.2933 10.2006 23.5023 10.4827L23.868 11.0052L23.5755 11.1097C22.7291 11.4232 22.0708 12.0397 21.6528 12.907C21.4229 13.3876 21.4124 13.5026 21.4124 16.3552C21.4124 19.1766 21.4229 19.3124 21.6319 19.5945C21.7468 19.7513 21.9663 19.9498 22.1021 20.0125C22.4678 20.2006 30.9109 20.2006 31.287 20.0125C31.4229 19.9394 31.6528 19.7199 31.7886 19.5214C32.0289 19.1557 32.0289 19.1452 31.9976 16.2821C31.9662 13.5966 31.9558 13.3772 31.7364 12.9174C31.4333 12.2487 30.7646 11.5486 30.1376 11.256C29.845 11.1201 29.6151 10.9739 29.6151 10.9425C29.6151 10.9112 29.6987 10.7649 29.8137 10.629C30.3048 9.99162 30.6601 8.97803 30.6601 8.17344C30.6601 6.96132 29.9391 5.56111 28.9986 4.9446C28.1209 4.35944 26.8774 4.07731 25.9892 4.2654ZM28.1104 5.88504C29.1345 6.4911 29.6465 7.89131 29.2599 8.99893C28.8837 10.0543 28.0269 10.7335 26.9819 10.8171C26.0206 10.9007 25.519 10.7231 24.8607 10.0857C24.4114 9.64679 24.2651 9.4169 24.1188 8.91534C23.4396 6.55379 25.9788 4.63112 28.1104 5.88504ZM29.6047 12.3532C30.0331 12.583 30.5242 13.1891 30.6496 13.6384C30.7123 13.8683 30.7646 15.0909 30.7646 16.4597V18.8944H26.6893H22.6141V16.4493C22.6141 13.837 22.6873 13.3772 23.1679 12.8443C23.7531 12.2173 23.7949 12.2069 26.6684 12.2069C28.7688 12.2069 29.3748 12.2382 29.6047 12.3532Z" fill="white"/>
<path d="M4.7667 12.1965C3.97255 12.489 3.57548 12.7712 2.96942 13.4295C-0.0190806 16.7001 -0.834126 21.9143 0.900458 26.7314C1.85134 29.3856 3.45009 31.6008 6.74162 34.8297C9.27035 37.3061 10.9109 38.5392 12.9485 39.49C15.9475 40.8798 19.5734 41.2664 22.5514 40.5141C25.0906 39.8662 27.7238 38.1212 28.4866 36.5747C28.8001 35.9477 28.8314 35.791 28.8314 34.9341C28.8314 33.419 28.6538 33.1264 26.24 30.7231C24.589 29.0825 24.1188 28.675 23.6068 28.4347C22.4678 27.9122 21.0572 27.9958 20.0018 28.6646C19.7615 28.8213 18.9882 29.5005 18.2777 30.1902C16.7312 31.7053 16.7207 31.7053 15.6026 30.838C13.4501 29.1766 11.6423 27.3793 10.0332 25.279C9.17631 24.1505 9.16586 24.1609 10.7855 22.5099C12.5201 20.7335 12.8649 20.0543 12.7709 18.6123C12.6977 17.3062 12.426 16.8987 10.1481 14.6312C8.4971 12.9906 8.03733 12.5831 7.51487 12.3532C6.67892 11.9666 5.56085 11.9039 4.7667 12.1965ZM7.10735 13.5444C7.53577 13.7639 10.9318 17.139 11.2871 17.6928C11.4438 17.9331 11.4856 18.1944 11.4856 18.8527C11.4856 19.9081 11.3916 20.0543 9.73012 21.7367C9.06137 22.4159 8.43441 23.116 8.32991 23.3041C8.05823 23.837 8.10003 24.6102 8.42396 25.1641C9.31215 26.6688 12.0708 29.6364 14.0457 31.2246C15.4668 32.3636 15.9579 32.6667 16.5013 32.7502C17.2327 32.8547 17.7134 32.5622 19.1763 31.1202C19.8868 30.4201 20.6601 29.7408 20.89 29.6259C21.4438 29.3333 22.6037 29.3124 23.1366 29.5946C23.6381 29.8558 27.0655 33.2727 27.3476 33.7847C27.6611 34.3699 27.6611 35.4984 27.3476 36.0836C26.7938 37.1285 24.7876 38.5078 23.0216 39.0512C21.6946 39.4691 20.8586 39.5841 19.2703 39.5841C15.9057 39.5841 13.3978 38.6959 10.3362 36.4075C9.24945 35.6029 5.27872 31.6322 4.47412 30.5454C2.17527 27.4733 1.29753 24.9969 1.29753 21.6113C1.29753 19.5005 1.62146 17.9854 2.40516 16.4493C3.29335 14.7252 4.25468 13.6803 5.26827 13.3459C5.68624 13.21 6.65803 13.3145 7.10735 13.5444Z" fill="white"/>
<path d="M4.20244 16.909C3.92031 17.0762 3.41874 17.9853 3.18886 18.7377C2.78133 20.0543 2.99032 23.0219 3.54413 23.8787C3.76357 24.2027 4.07705 24.2758 4.39053 24.0668C4.70401 23.8683 4.69356 23.6802 4.38008 22.3427C4.16064 21.4023 4.13974 20.0961 4.31738 19.3124C4.40098 18.9989 4.62041 18.4764 4.8085 18.1525C5.21602 17.4629 5.23692 17.2957 4.95479 17.0135C4.7249 16.7837 4.47412 16.7523 4.20244 16.909Z" fill="white"/>
<path d="M22.7186 36.0836C22.3424 36.3135 21.8618 36.4911 21.3393 36.5956C20.2944 36.8151 20.1167 36.8046 18.8315 36.5434C17.0864 36.1777 17.0133 36.1777 16.8147 36.4911C16.6058 36.8046 16.6789 37.1181 17.0028 37.3375C17.8283 37.8705 20.9527 38.1317 22.0916 37.7555C22.8126 37.5256 23.8367 36.9196 23.983 36.6374C24.1501 36.3344 24.0039 35.9373 23.7008 35.8224C23.3456 35.6866 23.3665 35.6761 22.7186 36.0836Z" fill="white"/>
</svg>
