<svg width="54" height="43" viewBox="0 0 54 43" fill="none" xmlns="http://www.w3.org/2000/svg">
<path d="M17.4859 0.742043C14.7251 1.55902 12.7249 3.23524 11.4994 5.74253C10.6542 7.47509 10.5134 8.39067 10.5134 12.3911V15.828H5.52699C1.17446 15.828 0.498333 15.8562 0.315217 16.0534C0.0334995 16.321 0.0194136 16.8704 0.272959 17.0817C0.399732 17.1803 2.06187 17.2507 5.45656 17.2648L10.443 17.307L10.5134 19.11C10.5838 21.0116 10.6542 21.1806 11.3022 21.1806C11.922 21.1806 11.922 21.1243 11.922 15.166C11.922 8.89776 12.0065 8.0667 12.7671 6.46091C14.4997 2.84084 18.655 1.06602 22.4441 2.31966C24.2189 2.91127 25.9797 4.39028 26.8953 6.08059C27.7545 7.67229 27.839 8.24981 27.839 12.2643V15.828H26.853H25.867V12.8277C25.867 11.1938 25.7966 9.4612 25.7261 8.99636C25.1768 5.65801 21.7539 3.34793 18.6128 4.19308C16.9225 4.64383 15.4998 5.78478 14.7251 7.34832L14.2461 8.29207L14.2039 19.7016C14.1898 25.9698 14.1194 31.1534 14.0489 31.2239C13.9222 31.3506 12.7108 30.5055 12.246 29.9421C11.9361 29.5758 11.922 29.4631 11.922 26.4347C11.922 23.7865 11.8938 23.2794 11.6966 23.0963C11.429 22.8146 11.2177 22.8146 10.8233 23.0963C10.5134 23.3076 10.5134 23.364 10.5134 26.5333V29.7449L9.85135 30.3505C9.47103 30.6745 8.76674 31.1394 8.25965 31.3788C7.42858 31.7732 7.21729 31.8155 5.99182 31.8155C4.7241 31.8155 4.59732 31.7873 3.58314 31.2802C2.83659 30.914 2.30133 30.5196 1.80832 29.9843C1.00542 29.0969 0.526505 28.9842 0.160272 29.5477C-0.0510158 29.8575 -0.0510158 29.9421 0.146186 30.2942C0.625106 31.238 2.38584 32.5339 3.85077 33.0269C4.59732 33.2663 4.99173 33.3086 6.25946 33.2663C8.07653 33.1959 8.92169 32.9001 10.2739 31.8859C10.7951 31.4915 11.2459 31.1816 11.3022 31.1816C11.3585 31.1816 11.6543 31.407 11.9642 31.6887C12.2741 31.9704 13.0066 32.4353 13.5982 32.717C14.6546 33.2241 14.6828 33.2241 16.4999 33.2241C18.2747 33.2241 18.3592 33.21 19.3171 32.7592C19.8523 32.5057 20.5989 32.0409 20.9651 31.745C21.3173 31.4352 21.6553 31.1816 21.7117 31.1816C21.7539 31.1816 22.2047 31.4915 22.7258 31.8859C24.2049 32.9987 24.9092 33.2241 26.9939 33.2241C29.0786 33.2241 29.7829 32.9987 31.2619 31.8859C31.7831 31.4915 32.2338 31.1816 32.2761 31.1816C32.3324 31.1816 32.6705 31.4352 33.0226 31.745C33.3888 32.0409 34.1354 32.5057 34.6707 32.7451C35.544 33.1536 35.8257 33.21 37.1779 33.2663C38.4879 33.3227 38.8401 33.2804 39.643 33.0128C40.6431 32.6747 41.8122 31.9845 42.2629 31.4774C42.4179 31.3225 42.5869 31.1816 42.6574 31.1816C42.7278 31.1816 43.1926 31.4915 43.7138 31.8859C45.066 32.9001 45.9112 33.1959 47.7283 33.2663C48.996 33.3086 49.3904 33.2663 50.1369 33.0269C51.6019 32.5339 53.3626 31.238 53.8415 30.2942C54.0387 29.9421 54.0387 29.8575 53.8274 29.5477C53.4612 28.9842 53.0386 29.111 52.0385 30.097C51.5596 30.59 50.8553 31.1253 50.475 31.2943C48.1649 32.3648 45.6999 31.9141 43.8828 30.0547C43.3476 29.5054 42.9532 29.2096 42.7419 29.2096C42.5306 29.2096 42.108 29.5195 41.5868 30.0688C41.0516 30.6041 40.4036 31.0689 39.8261 31.3506C38.9669 31.7732 38.7837 31.8014 37.4878 31.8014C36.1778 31.8014 36.0088 31.7732 35.1496 31.3366C34.6284 31.083 33.9523 30.6182 33.6283 30.3083L33.0508 29.7308V23.4766V17.2366H43.3335H53.6162L53.8415 16.8845C54.0528 16.5605 54.0528 16.5041 53.8415 16.1802L53.6162 15.828H50.2356H46.8549V12.7573C46.8549 8.2639 46.5451 6.75671 45.1787 4.672C44.08 2.99578 42.4038 1.67171 40.4036 0.925159C39.1359 0.44624 36.53 0.319467 35.1637 0.671614C32.6141 1.31956 30.4026 2.99578 29.149 5.22135C28.7123 6.01016 28.4024 6.24962 28.4024 5.79887C28.4024 5.43264 27.1911 3.81276 26.3037 2.9817C25.219 1.95343 23.571 1.03785 22.1906 0.699785C20.951 0.389896 18.5987 0.418068 17.4859 0.742043ZM38.6851 2.02386C39.8965 2.22106 41.6995 3.10847 42.6855 4.00997C43.6011 4.84103 44.4744 6.1651 44.9111 7.40466C45.2069 8.22164 45.2351 8.57379 45.2773 12.053L45.3196 15.828H44.2631H43.1926V14.7293C43.1926 13.532 43.0799 13.2926 42.4742 13.2926C41.9249 13.2926 41.7418 13.6024 41.6713 14.7716L41.6009 15.828H37.3329H33.0508V12.3629V8.89776L33.4734 8.01035C34.1917 6.50316 35.4031 5.68618 37.0793 5.5735C38.4034 5.48898 39.3049 5.78478 40.2205 6.61585C41.1924 7.48917 41.5587 8.29207 41.6432 9.81334C41.7136 10.8416 41.784 11.0952 42.0376 11.3628C42.3334 11.6445 42.3756 11.6586 42.7419 11.4473C43.1222 11.236 43.1222 11.2219 43.1081 9.84152C43.1081 8.57379 43.0658 8.33433 42.6855 7.51735C41.5164 5.03823 38.8964 3.61556 36.4032 4.10857C34.2481 4.54523 32.7832 5.7707 31.8535 7.93992C31.5859 8.54562 31.5718 9.03862 31.5295 19.1664L31.4873 29.7589L30.8252 30.3365C30.459 30.6604 29.9942 31.0126 29.7829 31.1253L29.3885 31.3366V20.2369C29.3885 8.02444 29.3885 8.08078 30.2618 6.29188C30.797 5.17909 32.4592 3.41836 33.4734 2.8831C35.1778 1.99569 36.7695 1.72805 38.6851 2.02386ZM21.5426 5.82704C22.4582 6.1651 23.4442 7.09477 23.9091 8.03852C24.233 8.68647 24.2471 8.8555 24.2894 12.2643L24.3316 15.828H19.9509H15.5561L15.6125 12.2643C15.6547 8.71465 15.6547 8.71465 16.0351 7.99627C16.4999 7.10886 17.6408 6.0665 18.4437 5.78478C19.3171 5.47489 20.6411 5.48898 21.5426 5.82704ZM27.839 19.2791V21.3215H21.7117H15.5843V19.2791V17.2366H21.7117H27.839V19.2791ZM27.839 23.9274V25.1247H21.7117H15.5843V24.026C15.5843 23.4203 15.6266 22.8709 15.6829 22.8287C15.7252 22.7723 18.486 22.7301 21.8103 22.7301H27.839V23.9274ZM27.839 29.2941V31.9282L26.7121 31.8436C25.219 31.745 24.0781 31.2098 22.8808 30.0688C22.3878 29.5899 21.8666 29.2096 21.7117 29.2096C21.5426 29.2096 21.0778 29.5617 20.613 30.0407C20.12 30.5477 19.4438 31.0408 18.8804 31.3225C18.0916 31.7028 17.7958 31.7732 16.8098 31.7873L15.6547 31.8155L15.6125 29.2378L15.5843 26.6741H21.7117H27.839V29.2941Z" fill="white"/>
<path d="M5.47064 39.0979C4.82269 39.7458 6.20311 41.3516 8.23147 42.3517L9.45695 42.9433H11.2177C13.3306 42.9433 14.063 42.7039 15.5702 41.5347C16.5281 40.7882 16.5562 40.7882 16.7957 41.0558C17.7676 42.1263 20.0073 43.056 21.444 42.9856C22.2047 42.9433 22.2751 42.9151 22.4019 42.563C22.6132 41.9573 22.2328 41.6615 21.1623 41.5347C19.9227 41.408 18.6973 40.8023 17.6408 39.774C17.1337 39.2951 16.6267 38.9288 16.4576 38.9288C16.2886 38.9288 15.8097 39.281 15.3167 39.774C14.7673 40.3374 14.1475 40.7882 13.5137 41.084C12.6404 41.4925 12.4291 41.5347 11.2177 41.5206C9.99221 41.5206 9.79501 41.4784 8.9076 41.0558C8.28782 40.76 7.65395 40.2952 7.13278 39.7599C6.30171 38.9148 5.83688 38.7316 5.47064 39.0979Z" fill="white"/>
<path d="M25.8952 39.7036C25.4726 40.1261 24.9514 40.5769 24.726 40.6896C23.9513 41.0981 24.064 42.1686 24.881 42.1686C25.1627 42.1686 25.543 41.9573 26.0642 41.5347C26.5008 41.1826 26.9234 40.9009 27.0079 40.9009C27.0925 40.9009 27.4587 41.1544 27.8108 41.4643C28.1771 41.7601 28.9236 42.2249 29.4589 42.4644C30.3181 42.8588 30.628 42.9292 31.8817 42.9856C33.0649 43.0278 33.5015 42.9856 34.2903 42.7461C35.2482 42.4644 36.6849 41.6193 37.192 41.0558C37.4456 40.7741 37.4597 40.7882 38.3048 41.4502C39.9247 42.7039 41.0938 43.0701 43.1504 42.9856C44.4322 42.9433 44.6294 42.887 45.7562 42.3376C47.7846 41.3516 49.165 39.7458 48.5171 39.0979C48.1508 38.7316 47.686 38.9148 46.8549 39.7599C46.3338 40.2952 45.6999 40.76 45.0801 41.0558C44.1927 41.4784 43.9955 41.5206 42.77 41.5206C41.5586 41.5347 41.3474 41.4925 40.474 41.084C39.8402 40.7882 39.2204 40.3374 38.671 39.774C38.178 39.281 37.6991 38.9288 37.5301 38.9288C37.3611 38.9288 36.854 39.2951 36.3469 39.774C33.8537 42.1827 30.4872 42.1545 28.1066 39.7317C27.0925 38.7035 26.8671 38.6894 25.8952 39.7036Z" fill="white"/>
</svg>
