<svg width="54" height="54" viewBox="0 0 54 54" fill="none" xmlns="http://www.w3.org/2000/svg">
<path d="M13.8401 0.726218C13.22 0.993996 12.9945 1.4168 12.8817 2.57248C12.8253 3.12213 12.7408 3.6295 12.6985 3.69997C12.6421 3.77043 11.9797 4.08049 11.2187 4.37646C10.4576 4.68652 9.80931 4.98248 9.76703 5.05295C9.612 5.29254 9.23148 5.15161 8.58317 4.60196C7.76574 3.92546 7.00469 3.58722 6.55369 3.69997C6.37048 3.74225 5.51077 4.48921 4.65106 5.36301C2.66386 7.37839 2.64977 7.47705 4.04504 9.29512L4.66515 10.1125L4.24235 11.0709C4.00275 11.5924 3.74907 12.283 3.66451 12.593C3.50948 13.1568 3.48129 13.185 2.83299 13.2695C0.225673 13.6078 0.0706431 13.7628 0.0142687 16.2855C-0.0702928 19.2452 0.169298 19.6257 2.15649 19.8371C2.79071 19.9076 3.36854 19.9922 3.4531 20.0203C3.53767 20.0485 3.73498 20.4432 3.9041 20.9082C4.07322 21.3592 4.32691 21.9794 4.48194 22.2894C4.62287 22.5995 4.70743 22.9095 4.65106 22.9941C3.22761 24.8685 3.08667 25.094 3.08667 25.4746C3.08667 26.137 3.38264 26.5598 4.80609 27.955C6.63826 29.7449 6.90604 29.7731 8.56908 28.4906L9.58382 27.7154L10.4576 28.1242C10.9368 28.3356 11.571 28.6033 11.8529 28.6879C12.1489 28.7866 12.4166 28.9134 12.4589 28.9839C12.4871 29.0402 12.5858 29.5617 12.6703 30.1254C12.9945 32.4509 13.079 32.5073 16.0387 32.5073C18.1527 32.5073 18.1668 32.5073 18.6037 32.1126C18.9983 31.7603 19.0547 31.6053 19.1675 30.5342C19.2379 29.8718 19.3225 29.2657 19.3507 29.1812C19.3789 29.0966 19.9849 28.8288 20.6896 28.5752C21.3942 28.3215 22.0003 28.0537 22.0426 27.9832C22.1553 27.8141 22.7754 27.8141 22.8882 27.9832C22.9304 28.0537 23.3533 28.406 23.8183 28.7584C24.7626 29.4771 25.3264 29.5758 25.9183 29.1671C26.1156 29.0402 26.8485 28.3356 27.5672 27.6168C29.3571 25.7987 29.3853 25.5873 28.0605 23.8538C27.4545 23.0646 27.4263 23.0082 27.6095 22.5854C27.7082 22.3458 27.99 21.627 28.2296 20.9928L28.6665 19.8512L29.5826 19.7526C30.8229 19.6398 31.3584 19.4425 31.6967 19.0197C31.9503 18.6955 31.9785 18.456 31.9785 16.5533C31.9785 13.7205 31.7953 13.3964 30.0054 13.2413C28.7088 13.1427 28.6243 13.1004 28.5256 12.6071C28.4692 12.3534 28.2015 11.6628 27.9337 11.0568L27.4404 9.98571L28.1451 9.08372C29.3712 7.53342 29.3008 7.23746 27.3558 5.27845C25.4391 3.33353 25.129 3.27716 23.5224 4.54558L22.705 5.17979L21.958 4.79927C21.5352 4.58786 20.8164 4.2778 20.3513 4.12277L19.5057 3.81271L19.3366 2.69932C19.1111 1.24768 18.9842 0.965809 18.3782 0.712124C17.7158 0.444346 14.4743 0.444346 13.8401 0.726218ZM18.35 11.1273C19.9285 11.8461 21.0983 13.1286 21.6197 14.7212C22.0003 15.905 21.8734 17.6667 21.3238 18.8365C20.2104 21.1619 17.6454 22.529 15.1931 22.0921C12.0925 21.5565 9.8375 18.5123 10.3872 15.595C10.7959 13.3541 12.2757 11.6065 14.3193 10.93C15.5172 10.5354 17.2507 10.6199 18.35 11.1273Z" fill="white"/>
<path d="M39.5891 17.103C38.0951 17.2439 37.475 17.6526 37.475 18.47C37.475 18.7096 37.4327 19.1465 37.3764 19.4425C37.3059 19.9358 37.2072 20.0203 36.5026 20.3727C36.0657 20.5841 35.4878 20.8941 35.22 21.0633L34.7268 21.3592L33.9516 20.866C33.0919 20.3304 32.3731 20.2458 31.9081 20.6405C31.7389 20.7673 31.2175 21.3451 30.7383 21.923C29.9631 22.8391 29.8645 23.0364 29.8645 23.5719C29.8645 24.0934 29.949 24.2625 30.5551 24.9249L31.2457 25.6719L30.992 26.3484C30.851 26.7148 30.696 27.2644 30.6396 27.5745C30.5269 28.2369 30.4 28.3496 29.5967 28.4765C28.131 28.702 27.6941 29.2939 27.8209 30.8583C28.0323 33.367 28.3424 33.7757 30.0195 33.7757H30.9356L31.5416 34.9595L32.1476 36.1434L31.6403 36.9045C31.1752 37.6091 31.0765 37.9474 31.1188 38.6662C31.1329 39.0326 33.0496 40.7379 33.7966 41.0621C34.4026 41.3158 34.8113 41.1607 35.7979 40.2869L36.4321 39.7232L37.7287 40.146L39.0112 40.5688L39.1099 41.3298C39.2226 42.2741 39.6595 42.9647 40.2656 43.162C40.9561 43.3734 43.5635 43.0774 43.944 42.7392C44.3104 42.4151 44.5218 41.6822 44.5218 40.7802V40.1037L45.2688 39.7655C45.6634 39.5822 46.2271 39.2863 46.4949 39.1312L47.0023 38.8212L47.7633 39.3426C48.7217 39.9628 49.06 40.0614 49.5955 39.8359C50.1029 39.6245 51.8223 37.6232 51.9773 37.0595C52.1324 36.5239 51.9632 36.1293 51.2304 35.3119L50.6243 34.6354L50.9485 33.677C51.1176 33.1556 51.3008 32.5495 51.3431 32.3522C51.4136 32.0422 51.5404 31.9576 52.231 31.8167C53.8941 31.4502 54.1477 31.0133 53.9363 28.9134C53.8518 28.1382 53.6967 27.349 53.584 27.1799C53.3021 26.7289 52.5693 26.447 51.7236 26.447H51.0331L50.4552 25.2772C50.1311 24.643 49.8774 24.0511 49.8774 23.9806C49.8774 23.8961 50.1029 23.4874 50.3707 23.0646C50.6384 22.6417 50.8639 22.2048 50.8639 22.078C50.8639 21.6129 50.3284 20.9364 49.2432 20.0485C48.2989 19.2593 48.0452 19.1183 47.5801 19.1183C47.1432 19.1183 46.9318 19.2311 46.3681 19.7526C46.0016 20.1049 45.6352 20.3868 45.5647 20.3868C45.4943 20.3868 45.1278 20.2599 44.7332 20.1049C44.3527 19.9499 43.7749 19.7667 43.4648 19.6821C42.9011 19.5552 42.887 19.5271 42.6333 18.5546C42.2527 17.0466 41.8722 16.8634 39.5891 17.103ZM42.9856 25.7987C43.8735 26.2074 44.7473 27.0812 45.2547 28.0255C45.5366 28.547 45.5788 28.8429 45.5788 30.0409C45.5788 31.2388 45.5366 31.5348 45.2547 32.0563C43.5212 35.2978 39.3495 35.6783 37.1791 32.8032C36.8831 32.3945 36.5589 31.8026 36.4603 31.4784C36.2489 30.7033 36.2489 29.3362 36.4603 28.6174C36.8549 27.3067 38.0669 26.0524 39.4481 25.5591C40.4065 25.2068 41.985 25.3195 42.9856 25.7987Z" fill="white"/>
<path d="M20.3372 32.8032C19.7171 32.9865 19.407 33.3811 19.3225 34.128C19.2661 34.7059 19.1956 34.8045 18.8151 34.9737C18.5755 35.0723 18.04 35.2978 17.6312 35.481L16.8984 35.7911L16.5742 35.5092C15.6018 34.6213 15.038 34.6777 13.8683 35.7629C13.0226 36.5662 12.9522 36.6649 12.9522 37.2286C12.9522 37.6655 13.0649 37.9756 13.375 38.4125L13.7978 38.9903L13.53 39.5259C13.3891 39.8078 13.1918 40.2869 13.1072 40.5688C12.9522 41.048 12.8817 41.1044 12.4307 41.1044C11.7401 41.1044 11.0354 41.4708 10.8663 41.9218C10.6126 42.556 10.5422 43.9513 10.7395 44.4868C10.9227 45.0224 11.4583 45.3606 12.4307 45.572C12.924 45.6707 12.9945 45.7552 13.3186 46.5304C13.5018 46.9955 13.6569 47.4324 13.6569 47.4888C13.6569 47.5592 13.5018 47.8129 13.3186 48.0525C12.473 49.1659 12.5716 49.7437 13.8401 50.9276C14.8971 51.9282 15.2776 51.9282 16.6306 50.9417C16.8279 50.8148 17.0252 50.8571 17.7158 51.1531C18.1809 51.3645 18.6178 51.5336 18.7024 51.5336C18.7728 51.5336 18.8856 51.886 18.942 52.3229C19.0124 52.9007 19.1393 53.2249 19.4352 53.549C19.8298 54 19.858 54 21.1265 54C22.3949 54 22.4231 53.9859 22.8177 53.5631C23.0855 53.253 23.2405 52.8866 23.311 52.3933C23.4096 51.7168 23.4378 51.6746 23.9452 51.5336C24.2411 51.4491 24.6639 51.294 24.8894 51.1813C25.3968 50.9135 25.6928 50.9135 25.9324 51.1954C26.2142 51.5336 26.8485 51.8155 27.3699 51.8155C27.7504 51.8155 27.99 51.6605 28.6947 50.984C29.8081 49.9129 29.9068 49.5182 29.3148 48.5599C28.8216 47.7565 28.7934 47.6156 29.0893 47.066C29.2021 46.8545 29.3853 46.4317 29.4981 46.1358C29.6813 45.6848 29.7658 45.6143 30.1464 45.6143C30.7383 45.6143 31.4993 45.2761 31.6826 44.9378C31.894 44.5573 31.9081 42.3446 31.7107 41.9782C31.5134 41.5976 31.1329 41.4003 30.4 41.2735C29.7658 41.1607 29.7376 41.1326 29.2585 39.8782L28.9202 39.0044L29.2444 38.6944C29.4276 38.5111 29.639 38.1588 29.7235 37.891C29.9068 37.2286 29.6531 36.6931 28.7511 35.8193C28.1028 35.1992 27.9478 35.1146 27.4263 35.1146C27.0035 35.1146 26.6934 35.2273 26.3411 35.4951L25.8478 35.8615L25.2841 35.6079C24.974 35.4669 24.4948 35.2555 24.213 35.1428C23.7479 34.9596 23.6915 34.8609 23.6069 34.2831C23.466 33.367 23.0432 32.916 22.1694 32.7751C21.2956 32.6341 20.8869 32.6341 20.3372 32.8032ZM23.0432 39.85C24.2552 40.4561 25.2136 41.9923 25.2136 43.3171C25.2136 45.3324 23.4519 47.08 21.4083 47.08C20.1963 47.08 19.5198 46.8405 18.7024 46.0794C17.5044 44.9378 17.138 43.2325 17.8004 41.7809C18.7165 39.7373 21.0701 38.8776 23.0432 39.85Z" fill="white"/>
</svg>
