<svg width="40" height="41" viewBox="0 0 40 41" fill="none" xmlns="http://www.w3.org/2000/svg">
<path d="M18.7996 0.925261C12.0463 1.56197 6.93179 7.70987 7.58938 14.4423C7.80857 16.8013 8.40353 18.3878 9.97965 20.8511C10.3659 21.4565 11.608 23.398 12.7457 25.1829C13.873 26.9573 14.9376 28.6274 15.1046 28.8779C15.2716 29.1388 15.4073 29.3789 15.4073 29.4311C15.4073 29.4728 13.8417 29.5146 11.9211 29.5146C10.0005 29.5146 8.36178 29.5459 8.26784 29.5772C8.11127 29.6398 7.72507 30.1095 3.97788 34.8379C2.95497 36.1322 1.68155 37.7292 1.15965 38.3868C-0.0407006 39.8898 -0.0928899 39.9942 0.0636781 40.37C0.126305 40.5265 0.303749 40.704 0.439441 40.777C0.627323 40.8605 5.87757 40.8918 20 40.8918C34.1224 40.8918 39.3727 40.8605 39.5606 40.777C39.6962 40.704 39.8737 40.5265 39.9363 40.37C40.0929 39.9942 40.0407 39.8898 38.8403 38.3868C38.3185 37.7292 37.045 36.1322 36.0221 34.8379C32.2749 30.1095 31.8887 29.6398 31.7322 29.5772C31.6382 29.5459 29.9995 29.5146 28.0789 29.5146C26.1583 29.5146 24.5927 29.4728 24.5927 29.4311C24.5927 29.3789 24.7284 29.1388 24.8954 28.8779C25.0624 28.6274 26.127 26.9573 27.2543 25.1829C28.392 23.398 29.6341 21.4565 30.0203 20.8511C31.5965 18.3878 32.1914 16.8013 32.4106 14.4423C32.9951 8.40921 28.9974 2.79364 23.027 1.2384C22.4007 1.07139 20 0.768693 19.7912 0.820883C19.7599 0.831321 19.3215 0.873072 18.7996 0.925261ZM22.6617 2.66838C24.6657 3.23203 26.1061 4.02531 27.5048 5.35092C29.1123 6.87484 30.0934 8.55534 30.7197 10.8308C30.9806 11.7911 30.9806 14.8702 30.7197 15.841C30.3961 17.0309 29.9055 18.1582 29.1853 19.3377C28.4964 20.4649 28.152 21.0077 25.4694 25.2037C23.5697 28.189 22.0458 30.5897 20.9916 32.2493C20.4906 33.0426 20.0418 33.6897 20 33.6897C19.9582 33.6897 19.5094 33.0426 19.0084 32.2493C17.9542 30.5897 16.4303 28.189 14.5306 25.2037C11.848 21.0077 11.5036 20.4649 10.8147 19.3377C10.0945 18.1582 9.60389 17.0309 9.28031 15.841C9.01937 14.8702 9.01937 11.7911 9.28031 10.8308C9.99009 8.23177 11.3679 6.12332 13.3406 4.60983C14.7184 3.53473 16.7225 2.6997 18.4865 2.43875C19.2693 2.32394 21.9414 2.47007 22.6617 2.66838ZM13.6016 31.122C13.5703 31.2055 12.9858 31.9779 12.3073 32.8443L11.0756 34.4099H8.70623C7.39106 34.4204 6.3264 34.3891 6.3264 34.3369C6.3264 34.2951 6.91092 33.5227 7.63113 32.6146L8.9463 30.9759H11.2948C13.3093 30.9759 13.6433 30.9967 13.6016 31.122ZM17.5367 32.6981L18.6013 34.3682L17.2131 34.3995C16.4511 34.4099 15.1881 34.4099 14.4053 34.3995L12.9858 34.3682L14.3218 32.6668L15.6683 30.9654L16.0649 30.9967C16.4616 31.0281 16.4824 31.0489 17.5367 32.6981ZM25.5843 32.5624C26.2732 33.4288 26.8786 34.2012 26.9203 34.2742C26.9934 34.3995 26.5237 34.4204 24.1856 34.4204H21.3674L22.2755 32.9799C22.7869 32.1971 23.2775 31.4247 23.3819 31.2577C23.528 31.0385 23.6533 30.9759 23.9559 30.9759C24.3213 30.9759 24.3839 31.0385 25.5843 32.5624ZM32.3793 32.6459C33.0891 33.5332 33.6736 34.2951 33.6736 34.3369C33.6736 34.3891 32.6089 34.4204 31.3042 34.4099H28.9244L27.6927 32.8443C27.0142 31.9779 26.4297 31.2055 26.3984 31.122C26.3462 30.9967 26.6698 30.9759 28.7261 30.9967L31.1059 31.0281L32.3793 32.6459ZM9.64564 36.1739C9.57257 36.2679 8.97761 37.0194 8.33047 37.844L7.14055 39.3262H4.73984C2.82971 39.3262 2.36001 39.2949 2.43307 39.1905C2.48526 39.1278 3.08022 38.3763 3.74824 37.5204L4.96947 35.986H7.38062C9.65608 35.986 9.77089 35.9965 9.64564 36.1739ZM29.5506 37.5622C30.2395 38.4285 30.8241 39.18 30.8345 39.2322C30.8554 39.2844 26.4924 39.3262 20 39.3262C13.5076 39.3262 9.14462 39.2844 9.1655 39.2322C9.18637 39.18 9.76045 38.4285 10.4494 37.5622L11.7019 35.986H20H28.2981L29.5506 37.5622ZM36.2518 37.5204C36.9198 38.3763 37.5147 39.1278 37.5669 39.1905C37.64 39.2949 37.1703 39.3262 35.2602 39.3262H32.849L31.6695 37.844C31.0224 37.0298 30.4274 36.2783 30.3544 36.1739C30.2187 35.9965 30.323 35.986 32.6194 35.986H35.0305L36.2518 37.5204Z" fill="white"/>
<path d="M19.0084 5.62235C14.1339 6.24863 11.0652 11.1962 12.6517 15.8723C14.5306 21.4044 21.7849 22.9075 25.7304 18.5966C27.223 16.9579 27.985 14.6302 27.7136 12.4696C27.3274 9.30692 25.3024 6.86446 22.2441 5.89374C21.7744 5.73717 20.1253 5.48666 19.8434 5.51798C19.7912 5.52841 19.4155 5.5806 19.0084 5.62235ZM22.0145 7.37592C23.8933 8.0335 25.3651 9.54699 26.0122 11.4571C26.1688 11.8955 26.2105 12.3339 26.2105 13.3359C26.2105 14.338 26.1688 14.7764 26.0122 15.2148C25.3442 17.1875 23.8516 18.6801 21.8788 19.3481C21.4404 19.5047 21.002 19.5465 20 19.5465C18.5387 19.5465 18.0377 19.4212 16.8686 18.7845C15.5952 18.0852 14.4992 16.7282 13.9878 15.2148C13.706 14.4006 13.706 12.2713 13.9878 11.4571C14.7289 9.25473 16.6286 7.5638 18.8518 7.13584C19.4781 7.02103 21.4196 7.15672 22.0145 7.37592Z" fill="white"/>
<path d="M24.4152 21.2686C23.695 21.5609 23.9142 22.6569 24.697 22.6569C25.3129 22.6569 25.6469 21.9575 25.2502 21.4983C25.0206 21.2373 24.7179 21.1538 24.4152 21.2686Z" fill="white"/>
<path d="M22.4111 23.9721C22.0563 24.327 19.2693 29.0762 19.2693 29.3267C19.2693 29.6503 19.6764 30.0365 20.0104 30.0365C20.1566 30.0365 20.3758 29.9321 20.4906 29.7964C20.835 29.4311 23.6533 24.6819 23.6533 24.4731C23.6533 24.2017 23.1835 23.7738 22.8704 23.7738C22.7243 23.7738 22.526 23.8573 22.4111 23.9721Z" fill="white"/>
</svg>
