<svg width="14" height="12" viewBox="0 0 14 12" fill="none" xmlns="http://www.w3.org/2000/svg">
<path d="M6.62536 0.930385C6.45709 0.992573 6.91801 0.619442 3.19402 3.7179C1.3686 5.23969 0.0187383 6.39201 0.0041057 6.43591C-0.0215014 6.54199 0.0699525 6.71027 0.355288 7.04682C0.615017 7.35776 0.724762 7.43458 0.856455 7.40166C0.900353 7.39068 2.29777 6.24568 3.95857 4.8629C5.61937 3.47646 6.99118 2.34243 7.00215 2.34243C7.01313 2.34243 8.38493 3.47646 10.0457 4.8629C11.7065 6.24568 13.104 7.39068 13.1515 7.40166C13.2795 7.43458 13.3966 7.35044 13.6819 7.00658C13.9709 6.65905 14.0331 6.53833 13.9856 6.41761C13.9709 6.37372 13.5246 5.97864 12.9905 5.53966L12.0211 4.73852L12.0065 2.88384C11.9955 1.16085 11.9919 1.02184 11.9297 0.963308C11.8712 0.904778 11.7724 0.897461 11.0151 0.886487C10.5506 0.879171 10.1152 0.882829 10.0494 0.897461C9.81893 0.941359 9.81893 0.937701 9.81893 1.94735C9.81893 2.51071 9.8043 2.85457 9.78235 2.84726C9.76406 2.83994 9.27021 2.43389 8.6849 1.94735C8.09594 1.45716 7.55819 1.02184 7.48869 0.977941C7.32041 0.879171 6.83388 0.853564 6.62536 0.930385Z" fill="#888888"/>
<path d="M6.09858 3.86792C5.41451 4.43128 2.55017 6.79444 2.07461 7.18953L1.98682 7.26269L1.99779 9.45758L2.00877 11.6525L2.0929 11.7732C2.26118 12.0037 2.21362 12 4.13049 12H5.86812V10.3355V8.67108H7.00214H8.13617V10.3355V12H9.87379C11.7907 12 11.7431 12.0037 11.9114 11.7732L11.9955 11.6525L12.0065 9.45758L12.0175 7.26269L11.9297 7.18953C11.4541 6.79444 8.58978 4.43128 7.90571 3.86792C7.41917 3.47284 7.01312 3.14727 7.00214 3.14727C6.99117 3.14727 6.58511 3.47284 6.09858 3.86792Z" fill="#888888"/>
</svg>
