<svg width="54" height="47" viewBox="0 0 54 47" fill="none" xmlns="http://www.w3.org/2000/svg">
<path d="M15.6139 0.178988C15.0653 0.277454 14.3479 1.05112 14.2635 1.65598L14.1791 2.17645L7.72257 2.21865C1.46293 2.26085 1.28006 2.27491 0.886197 2.55625C0.675198 2.71098 0.379799 3.06264 0.253199 3.32991C0.0140666 3.76597 0 4.5959 0 14.4988C0 24.7815 0.0140666 25.2176 0.281332 25.7943C0.745531 26.8212 0.661131 26.8071 7.84917 26.8071H14.1651L14.2495 27.2854C14.2917 27.5526 14.4323 27.9465 14.573 28.1575C15.0091 28.8045 15.5155 28.9171 18.1178 28.9171C20.3544 28.9171 20.5232 28.903 20.9733 28.5935C21.6907 28.1153 21.8033 27.7636 21.8033 26.0616C21.8033 24.9503 21.8455 24.5564 21.9861 24.5564C22.4081 24.5564 23.6038 25.2738 24.0961 25.8224C25.1652 27.004 25.1792 27.0181 25.1792 32.1102V36.6537L12.8569 36.6818L0.534531 36.724L0.267266 37.0616C-0.0703331 37.4696 -0.0703331 37.568 0.281332 37.9197C0.562665 38.201 0.745531 38.201 12.871 38.201H25.1792V39.5092C25.1792 40.4658 25.2355 40.9018 25.4043 41.1269C25.6856 41.5208 26.3749 41.5489 26.5859 41.1691C26.6703 40.9862 26.7266 38.5949 26.7266 34.3609C26.7266 28.2278 26.7125 27.7636 26.4452 26.9337C25.9248 25.2316 24.4618 23.7968 22.7598 23.2764L21.8033 22.981V14.9067V6.8325H22.8723C24.3774 6.8325 26.6844 7.18416 28.3864 7.67649C31.6077 8.61896 34.4632 10.3351 36.9389 12.8108C40.9901 16.8761 42.9032 21.729 42.9032 27.9324C42.9032 29.1281 42.9594 29.7611 43.072 29.8736C43.283 30.0846 43.93 30.0846 44.141 29.8736C44.352 29.6626 44.3661 25.6818 44.1692 24.2329C42.875 15.3287 36.6717 8.29542 28.1192 6.0729C26.7406 5.70717 25.137 5.4821 23.0411 5.34144L21.8033 5.25704V3.32991C21.8033 1.54345 21.7751 1.34652 21.4797 0.910452C21.2969 0.643186 20.9452 0.361854 20.6779 0.263388C20.1997 0.108655 16.4017 0.0383219 15.6139 0.178988ZM20.3122 1.85292C20.3544 1.97951 20.3966 7.73276 20.3966 14.6395C20.3966 26.9337 20.3966 27.2291 20.1293 27.3697C19.8339 27.5245 16.3595 27.5667 15.9797 27.426C15.7827 27.3557 15.7546 26.9196 15.7546 24.1204C15.7546 21.082 15.7405 20.885 15.4733 20.6178C15.1216 20.2661 14.8403 20.2661 14.4886 20.6178C14.2354 20.871 14.2073 21.082 14.2073 23.1498V25.4004H8.06017C4.67012 25.4004 1.81459 25.3442 1.71613 25.2879C1.57546 25.1894 1.54733 22.9388 1.57546 14.4847L1.61766 3.80817L7.9195 3.76597L14.2073 3.73784V10.9399C14.2073 17.4387 14.2354 18.1561 14.4464 18.3953C14.7277 18.7047 15.1638 18.7188 15.5014 18.4093C15.7405 18.1983 15.7546 17.7482 15.7546 9.89902V1.62785H17.9912C19.9043 1.62785 20.2419 1.65598 20.3122 1.85292Z" fill="white"/>
<path d="M24.6447 11.5448C24.3353 11.7699 24.2649 12.0934 24.4197 12.5154C24.4619 12.642 24.8698 12.839 25.3059 12.9656C29.8775 14.2456 33.7599 17.3684 35.7574 21.3915C37.0937 24.0641 37.4172 25.6677 37.5438 30.0424L37.6282 33.4747L37.9799 33.6575C38.2612 33.7982 38.3878 33.7982 38.6129 33.6435C38.8802 33.4606 38.8942 33.2777 38.9364 30.3097C38.9646 27.8621 38.9224 26.8634 38.7395 25.8224C38.3034 23.3186 37.375 20.9976 35.9402 18.7891C35.04 17.4106 32.5783 14.949 31.1576 14.0206C29.4274 12.8812 27.233 11.8965 25.7138 11.5589C25.5169 11.5167 25.2637 11.4464 25.1511 11.4042C25.0527 11.362 24.8276 11.4323 24.6447 11.5448Z" fill="white"/>
<path d="M24.5603 17.9311C24.0961 18.4375 24.3212 18.7751 25.6716 19.6191C27.9222 21.0117 29.5399 22.9951 30.4542 25.4708C30.7637 26.3429 30.9043 26.5398 31.1997 26.6242C32.0719 26.8352 32.2829 26.0475 31.7061 24.5986C30.6371 21.8697 28.4849 19.4081 26.0232 18.0999C25.0667 17.5935 24.8838 17.5653 24.5603 17.9311Z" fill="white"/>
<path d="M48.8956 19.2112C47.2076 20.2802 47.3342 22.8263 49.1206 23.6984C50.9212 24.5565 52.8905 23.3608 52.8905 21.3915C52.8905 19.3096 50.668 18.0999 48.8956 19.2112ZM51.1322 20.6178C51.4416 20.9695 51.4838 21.7572 51.2025 22.0948C50.668 22.7278 49.6833 22.6153 49.3035 21.8698C49.0362 21.3634 49.0362 21.3352 49.3738 20.7866C49.613 20.3928 49.7255 20.3365 50.26 20.3365C50.7102 20.3365 50.9493 20.4209 51.1322 20.6178Z" fill="white"/>
<path d="M31.3123 28.5795C31.1294 28.7624 31.0872 29.2266 31.0872 31.4491V34.1218L31.4389 34.3468C31.7624 34.5578 31.8187 34.5578 32.1422 34.3468L32.4939 34.1218V31.3788C32.4939 28.8186 32.4798 28.6358 32.2266 28.4951C31.8468 28.2982 31.5655 28.3122 31.3123 28.5795Z" fill="white"/>
<path d="M48.3891 29.4798C47.7139 29.6064 47.3763 29.8033 46.87 30.3941C46.3354 30.999 46.2229 31.3647 46.3073 32.3634C46.448 34.1218 48.2485 35.1486 49.8661 34.4172C51.0477 33.8826 51.6807 32.6448 51.3572 31.4913C51.2728 31.1396 51.0618 30.6614 50.9071 30.4363C50.4007 29.733 49.3035 29.325 48.3891 29.4798ZM49.5848 31.2381C50.049 31.6882 50.0631 32.4056 49.5989 32.8417C49.1347 33.2778 48.3047 33.2074 47.9249 32.687C47.1372 31.6179 48.6564 30.2956 49.5848 31.2381Z" fill="white"/>
<path d="M18.9196 30.3941C18.2163 30.6332 17.3441 31.5898 17.2175 32.2509C16.8518 34.1921 18.6242 35.9363 20.4107 35.4018C21.0999 35.1908 21.9298 34.4875 22.169 33.8826C22.7598 32.476 21.9158 30.7458 20.4388 30.3378C19.7636 30.1409 19.6089 30.155 18.9196 30.3941ZM20.5935 32.1665C20.7905 32.4056 20.9592 32.7151 20.9592 32.8558C20.9592 32.9964 20.7905 33.3059 20.5935 33.545C19.9043 34.3609 18.7086 33.9389 18.7086 32.8698C18.7086 31.7726 19.8902 31.3225 20.5935 32.1665Z" fill="white"/>
<path d="M43.072 32.0399C42.8329 32.279 42.8329 41.0285 43.072 41.2676C43.283 41.4786 43.9301 41.4786 44.1411 41.2676C44.2536 41.1551 44.3099 40.5924 44.3099 39.6499V38.2011H48.8815C53.2703 38.2011 53.4672 38.187 53.7345 37.9197C54.0861 37.5681 54.0861 37.4696 53.7485 37.0617L53.4813 36.7241L48.8956 36.6819L44.3099 36.6397V34.4312C44.3099 32.054 44.2677 31.8711 43.6065 31.8711C43.4096 31.8711 43.1705 31.9414 43.072 32.0399Z" fill="white"/>
<path d="M34.435 36.4287C33.4082 36.8788 32.6767 38.1448 32.8174 39.1998C32.9158 39.9875 33.5066 40.8034 34.21 41.1691C36.123 42.1397 38.5144 40.3533 37.9798 38.3277C37.5438 36.7381 35.8276 35.8097 34.435 36.4287ZM36.2637 38.1448C36.6998 38.6371 36.6576 39.1295 36.1512 39.6359C35.7854 39.9875 35.6448 40.0438 35.265 39.9735C34.3647 39.8047 33.9849 38.6934 34.646 38.1026C35.2368 37.554 35.7292 37.5681 36.2637 38.1448Z" fill="white"/>
<path d="M20.3966 41.8865C19.3134 42.196 18.4272 43.3354 18.4272 44.4044C18.4272 45.1218 18.9758 46.0784 19.651 46.5566C20.481 47.1334 21.6626 47.1474 22.4925 46.5988C24.3915 45.3469 23.9132 42.4773 21.7188 41.8725C21.0858 41.6896 21.0577 41.6896 20.3966 41.8865ZM21.8736 43.6167C22.9004 44.6295 21.4797 46.1206 20.3403 45.2203C19.5666 44.6154 20.0871 43.2651 21.0999 43.2651C21.3672 43.2651 21.6626 43.3916 21.8736 43.6167Z" fill="white"/>
</svg>
