<svg width="60" height="60" viewBox="0 0 60 60" fill="none" xmlns="http://www.w3.org/2000/svg">
<path d="M28.4219 0.230732C27 0.511982 26.2188 0.949482 23.1875 3.12136L20.5625 4.99636H15.6406C8.76562 4.99636 9.0625 4.77761 9.0625 9.87136V13.0901L8.09375 13.8089C7.54688 14.1995 5.67188 15.5276 3.90625 16.762C2.14062 18.012 0.546875 19.1682 0.359375 19.3401L0 19.6682V38.387C0 51.387 0.046875 57.2932 0.171875 57.7151C0.40625 58.5432 0.84375 59.1057 1.60938 59.5432L2.26562 59.9182L29.5312 59.9651C48.7188 59.9964 57.0312 59.9651 57.5938 59.8401C58.4531 59.6526 59.1719 59.1057 59.625 58.262C59.9062 57.7464 59.9219 56.887 59.9688 38.6839L60 19.6526L59.5781 19.2776C59.3281 19.0745 57.5312 17.762 55.5469 16.3714C53.5781 14.9964 51.7188 13.6839 51.4531 13.4651L50.9375 13.0901V9.88698C50.9375 6.38698 50.8438 5.91823 50.0312 5.35573C49.6562 5.10573 49.0938 5.05886 44.4531 4.99636L39.2969 4.91823L36.75 3.07448C33.7344 0.902607 33.0156 0.511982 31.4531 0.215107C30.0781 -0.050518 29.7969 -0.034893 28.4219 0.230732ZM32.1875 2.38698C32.6562 2.59011 33.7344 3.23073 34.5781 3.82448L36.1094 4.91823L33.0469 4.96511C31.375 4.98073 28.625 4.98073 26.9375 4.96511L23.875 4.91823L25.4219 3.84011C27.5156 2.35573 28.3281 2.02761 30 2.02761C31.0156 2.02761 31.5312 2.12136 32.1875 2.38698ZM49.0312 16.9807L49.0625 27.012L48.25 27.6995C47.7969 28.0901 45.9062 29.6682 44.0625 31.1995C42.2188 32.7307 39.0625 35.3401 37.0625 36.9964C35.0781 38.6526 33.1094 40.1839 32.6875 40.4026C31.0312 41.262 28.9844 41.262 27.3125 40.387C26.875 40.1526 25.5 39.1214 24.2344 38.0745C22.9844 37.0276 19.4688 34.1214 16.4531 31.6057L10.9375 27.0276V17.0432C10.9375 11.5589 10.9844 7.02761 11.0469 6.98073C11.0938 6.91823 19.6562 6.88698 30.0625 6.91823L48.9844 6.94948L49.0312 16.9807ZM54.4375 17.887C56.0312 18.9964 57.3281 19.9651 57.3281 20.0432C57.3438 20.1526 51.3438 25.1839 51.0781 25.2776C51 25.3089 50.9375 23.4339 50.9375 20.387C50.9375 15.4964 50.9375 15.4339 51.25 15.637C51.4062 15.762 52.8438 16.762 54.4375 17.887ZM9.0625 20.4807C9.0625 23.3557 9 25.3089 8.92188 25.2776C8.65625 25.1839 2.65625 20.1526 2.67188 20.0432C2.67188 19.9026 8.75 15.6214 8.9375 15.6214C9 15.6214 9.0625 17.8089 9.0625 20.4807ZM6.48438 25.7776C8.71875 27.637 13.2969 31.4339 16.6406 34.1995C20 36.9807 22.7969 39.3089 22.8594 39.3714C22.9375 39.4339 21.1406 41.0276 18.875 42.9182C15.0312 46.1057 4.4375 54.9182 2.78125 56.2932L2.03125 56.9026V39.5276C2.03125 25.6839 2.07812 22.1839 2.23438 22.2776C2.32812 22.3557 4.25 23.9182 6.48438 25.7776ZM57.9688 39.5432V56.9026L57.2344 56.2932C55.125 54.5589 39.4375 41.5276 38.4062 40.6526C37.7344 40.0901 37.1875 39.5589 37.2031 39.4651C37.2031 39.3714 39.0469 37.7776 41.2969 35.9182C43.5469 34.0589 48.1875 30.1995 51.625 27.3557C55.0469 24.512 57.875 22.1839 57.9062 22.1839C57.9375 22.1839 57.9688 29.9964 57.9688 39.5432ZM24.8438 41.012C25.1719 41.4026 26.7344 42.2776 27.6562 42.5901C28.8594 42.9807 31.3281 42.9495 32.5156 42.5276C33.4375 42.1995 34.5312 41.5745 35.1094 41.0589C35.3125 40.8557 35.5312 40.7932 35.6562 40.8714C35.7656 40.9339 37.6875 42.512 39.9219 44.3714C42.1562 46.2307 46.3438 49.6995 49.2188 52.0901C52.0938 54.4807 54.8594 56.7776 55.3594 57.1995L56.2812 57.9651H30H3.71875L10.3438 52.4651C13.9688 49.4495 18.625 45.5745 20.6719 43.8714C22.7188 42.1682 24.4531 40.7776 24.5156 40.7776C24.5938 40.7776 24.7344 40.887 24.8438 41.012Z" fill="white"/>
<path d="M27.8438 11.4183C25.4688 12.0589 23.5938 13.1526 21.7344 15.012C17.8281 18.9339 16.8438 23.5745 18.9844 27.9026C20.25 30.4495 22.1719 32.0589 25.0156 32.9495C29.3281 34.3089 34.3281 34.1995 37.6406 32.6526C39.75 31.6526 41.875 29.7933 41.875 28.9183C41.875 28.4495 41.4063 27.9651 40.9688 27.9651C40.8438 27.9651 40.2344 28.4495 39.6094 29.0276C37.5625 30.9339 35.3281 31.8089 32.0781 31.9808C28.8438 32.1526 25.4375 31.4495 23.5156 30.2308C20.2969 28.1839 18.9375 24.0589 20.2969 20.4495C20.8281 19.0589 21.7188 17.7151 22.9531 16.4651C24.9531 14.4651 26.7813 13.4808 29.3906 13.0276C31.8906 12.5901 34.2344 13.0901 36.0781 14.4495C39.3438 16.8558 40.2031 21.5276 37.9844 24.9495C37.2813 26.0433 36.7344 26.4651 35.7344 26.7151C35.1875 26.8558 34.8906 26.8558 34.4688 26.7151C33.9531 26.5433 33.9063 26.4808 33.9063 25.9339C33.9063 25.6058 33.9688 25.1526 34.0625 24.9339C34.2813 24.3245 35.625 17.6214 35.625 17.0745C35.625 16.512 35.3125 16.1995 34.7344 16.1995C34.25 16.1995 33.75 16.7464 33.75 17.2776C33.75 17.8089 33.5313 17.8558 33.125 17.4183C32.125 16.3558 30.4375 15.8558 28.8906 16.1683C26.6094 16.6214 24.4844 18.8714 23.5156 21.8558C23.1406 23.012 23.2344 25.2776 23.7188 26.1839C24.7969 28.2933 26.9844 29.1995 29.3125 28.512C30.2656 28.2308 31.4063 27.6526 31.7188 27.262C31.9844 26.9339 32.0781 26.9651 32.3906 27.4964C33.1094 28.7151 35.3438 29.0589 37.1094 28.2308C38.3438 27.6526 39.3906 26.5276 40.1563 24.9339C40.9063 23.3714 41.1719 21.9651 41.0469 20.0901C40.7969 15.8558 37.9219 12.3714 33.8281 11.3245C32.4531 10.9808 29.3125 11.0276 27.8438 11.4183ZM31.4219 18.4651C31.8281 18.7933 32.25 19.3245 32.5469 19.9026C33 20.8089 33.0156 20.8401 32.8125 21.9339C32.5469 23.4183 32.1719 24.1058 30.9531 25.3401C30.125 26.1526 29.7344 26.4183 29.0625 26.6214C27.9375 26.9651 27.375 26.9339 26.5625 26.512C25.5156 25.9964 25.1094 25.137 25.2031 23.5589C25.25 22.5589 25.3594 22.1526 25.8438 21.1839C26.8594 19.1058 28.2656 17.9808 29.875 17.9651C30.6406 17.9651 30.8438 18.0276 31.4219 18.4651Z" fill="white"/>
</svg>
