<svg width="68" height="90" viewBox="0 0 68 90" fill="none" xmlns="http://www.w3.org/2000/svg">
<rect width="68" height="90" fill="#1A2F5A"/>
<path d="M16 60.75V51.8549C16 49.2629 16.4525 46.6121 17.3574 43.9023C18.3016 41.1925 19.5016 38.6202 20.9574 36.1853C22.4131 33.7505 24.0262 31.6887 25.7967 30L33.4689 34.6537C32.3279 36.9708 31.3049 39.5038 30.4 42.2529C29.5344 44.9626 29.1016 48.1633 29.1016 51.8549V60.75H16ZM34.5311 60.75V51.8549C34.5311 49.2629 34.9836 46.6121 35.8885 43.9023C36.8328 41.1925 38.0328 38.6202 39.4885 36.1853C40.9443 33.7505 42.5574 31.6887 44.3279 30L52 34.6537C50.859 36.9708 49.8361 39.5038 48.9311 42.2529C48.0656 44.9626 47.6328 48.1633 47.6328 51.8549V60.75H34.5311Z" fill="white"/>
</svg>
