<svg width="101" height="100" viewBox="0 0 101 100" fill="none" xmlns="http://www.w3.org/2000/svg">
<circle cx="50.5" cy="50" r="50" fill="#1A2F5A"/>
<path d="M49.5949 30.068C48.5349 30.2801 47.3194 30.9726 45.9908 32.174C44.6056 33.4319 44.2523 33.6581 43.5032 33.7994C42.5703 33.969 41.9485 33.6722 40.3937 32.3012C38.0899 30.2801 36.5634 29.7288 34.7401 30.2518C33.7366 30.5486 32.9875 31.0292 31.5741 32.3012C30.302 33.4602 29.9346 33.6863 29.1289 33.8136C28.3233 33.9408 27.6024 33.6581 26.7685 32.8807C25.7792 31.962 25.4258 31.75 24.8887 31.75C23.9841 31.75 23.3622 32.5415 23.546 33.4461C23.6591 34.0114 25.2421 35.4955 26.4152 36.1315C27.3056 36.6121 27.3763 36.6262 28.818 36.6121C30.7119 36.6121 31.3338 36.3294 33.2702 34.6616C35.2913 32.909 35.9556 32.6122 36.8602 33.0786C37.0722 33.1917 37.8496 33.8277 38.5846 34.5061C39.3902 35.2552 40.2665 35.8913 40.8319 36.1739C41.6799 36.598 41.8495 36.6262 43.164 36.6262C44.4784 36.6262 44.648 36.5838 45.5102 36.1598C46.0332 35.8913 46.966 35.2128 47.6586 34.5768C48.3512 33.969 49.1851 33.333 49.5243 33.1634C50.0896 32.8948 50.2168 32.8807 50.6833 33.0362C51.3617 33.2482 51.4465 33.3047 52.7327 34.4779C54.7114 36.2729 55.4747 36.6262 57.3686 36.6262C59.2767 36.6262 60.2661 36.1598 62.2166 34.3224C63.3191 33.2906 64.2378 32.81 64.8738 32.9514C65.3685 33.0645 66.2872 33.7288 67.5593 34.9301C68.0822 35.4107 68.8737 35.9902 69.326 36.2163C70.0892 36.598 70.2871 36.6262 71.7146 36.6262C73.2129 36.6262 73.2977 36.598 74.174 36.1315C74.6828 35.863 75.6015 35.1563 76.2093 34.5768C77.2976 33.545 77.3258 33.4885 77.3258 32.8807C77.3117 32.0468 76.7322 31.4673 75.8842 31.4673C75.4036 31.4673 75.2057 31.5804 74.3012 32.4002C73.1563 33.4319 72.7888 33.6581 72.0539 33.7994C71.1493 33.969 70.4567 33.6581 69.2695 32.5698C67.1494 30.6193 66.0752 30.0398 64.6476 30.0256C63.1636 30.0256 62.2449 30.5062 60.153 32.3436C58.7538 33.5733 58.2308 33.8701 57.4393 33.8701C56.6195 33.8701 56.0683 33.545 54.669 32.2447C52.7044 30.4355 51.1638 29.7712 49.5949 30.068Z" fill="white"/>
<path d="M35.3055 40.9371C34.3161 41.1067 33.3408 41.6721 31.8285 42.9583C29.8497 44.6543 29.3126 44.8805 28.1678 44.5413C27.7014 44.3999 27.1643 44.0607 26.5141 43.4812C25.6661 42.7321 25.4823 42.6332 24.9594 42.6332C24.0831 42.6332 23.5884 43.1279 23.5884 44.0042C23.5884 44.6402 23.6308 44.725 24.4788 45.5307C25.5389 46.5766 26.3445 47.0713 27.4752 47.3539C28.5353 47.6366 29.1006 47.6366 30.1607 47.3681C31.2066 47.0854 32.1677 46.52 33.2702 45.5024C34.5422 44.3293 35.4327 43.7639 36.0404 43.7639C36.6199 43.7639 36.8319 43.9052 38.4997 45.3893C39.9697 46.7038 40.3654 46.9723 41.3407 47.2974C42.8248 47.8062 44.6056 47.5801 46.019 46.6896C46.3158 46.5059 47.1074 45.884 47.7575 45.3186C49.0296 44.2445 49.8211 43.7639 50.3016 43.7639C50.7963 43.7639 51.3476 44.1314 52.6761 45.361C53.4535 46.0819 54.344 46.732 54.9093 47.0289C55.828 47.4811 55.9411 47.5094 57.3545 47.5094C58.7538 47.5094 58.9092 47.4811 59.7856 47.0571C60.2944 46.8027 61.1848 46.1667 61.7643 45.6579C63.0646 44.4847 63.8844 43.9194 64.4074 43.8204C65.001 43.6932 65.7642 44.1314 67.1352 45.4034C69.1564 47.255 70.061 47.6508 71.9832 47.5518C73.6369 47.4529 74.6828 46.9441 76.1951 45.4883C77.2976 44.4282 77.3682 44.3293 77.3682 43.7639C77.3682 43.2692 77.2834 43.0996 76.9018 42.7604C76.181 42.1102 75.658 42.195 74.598 43.0855C73.0432 44.4282 72.6334 44.6543 71.856 44.725C70.8807 44.8098 70.3578 44.513 68.6758 42.9865C67.0363 41.5025 66.1459 41.036 64.789 40.9654C63.206 40.8806 62.1318 41.4035 60.0541 43.2692C58.6407 44.5554 58.2873 44.7533 57.4676 44.7533C56.563 44.7533 55.9835 44.4141 54.5418 43.0572C53.7503 42.3081 53.0012 41.7427 52.3228 41.4177C51.39 40.9371 51.2345 40.9088 50.2734 40.9512C48.8882 41.0219 47.7858 41.5873 46.1886 43.0007C44.2664 44.7109 43.277 45.0642 42.1181 44.4706C41.8212 44.3293 40.9873 43.6508 40.2665 42.9865C38.3443 41.2198 37.0015 40.6686 35.3055 40.9371Z" fill="white"/>
<path d="M34.514 51.8062C33.6094 52.1454 32.8603 52.6542 31.5034 53.8697C30.2455 55.0004 29.5953 55.3538 28.818 55.3538C28.0689 55.3538 27.56 55.0852 26.3728 54.0676C25.6095 53.4033 25.3127 53.2337 24.9311 53.2337C23.8993 53.2337 23.1785 54.4209 23.6449 55.3255C23.9559 55.9333 25.5106 57.276 26.3869 57.7C28.719 58.8025 30.8674 58.3643 33.1571 56.3008C35.15 54.5199 35.9839 54.1807 36.945 54.7602C37.1853 54.9156 37.9344 55.5517 38.627 56.1877C40.1534 57.5728 41.2841 58.1806 42.5562 58.2795C44.4078 58.435 45.7929 57.8414 47.7575 56.0605C49.0296 54.9015 49.6797 54.5057 50.3016 54.5057C50.8953 54.5057 51.2204 54.7178 52.6338 55.9898C55.1496 58.2654 56.9164 58.8025 59.2485 57.9827C60.3085 57.6011 60.5629 57.4315 62.3155 55.8626C64.3084 54.0676 64.789 54.0959 66.9232 56.0888C67.6865 56.7813 68.5345 57.5022 68.803 57.6718C71.0079 59.0569 74.0185 58.5481 75.9266 56.4845C77.3258 54.9722 77.5803 54.0676 76.8029 53.3044C76.0679 52.5553 75.3754 52.7249 73.9761 54.0393C73.0432 54.9015 72.2376 55.3538 71.5733 55.3538C70.8525 55.3538 70.061 54.8732 68.69 53.6153C66.895 51.9616 66.1741 51.6083 64.5063 51.6083C63.3191 51.6083 63.1636 51.6365 62.3438 52.0888C61.8491 52.3574 60.9021 53.0782 60.2237 53.686C58.782 54.9863 58.1601 55.3538 57.3686 55.3538C56.4923 55.3538 55.9694 55.0711 54.7397 53.9121C52.8034 52.103 51.7433 51.5376 50.3016 51.5376C48.86 51.5376 47.7434 52.1171 45.5809 53.9828C43.3618 55.905 42.6975 55.8485 40.1252 53.5729C38.4856 52.103 37.5669 51.6365 36.2383 51.58C35.5316 51.5517 35.0511 51.6083 34.514 51.8062Z" fill="white"/>
<path d="M34.7966 63.0568C33.8779 63.3395 33.1006 63.8483 31.7861 65.0214C29.454 67.0991 28.5353 67.1557 26.4435 65.3183C25.6802 64.654 25.4682 64.5409 24.9877 64.5409C24.5495 64.5409 24.3234 64.6398 23.9983 64.9508C23.1361 65.813 23.5743 66.8447 25.3975 68.2157C26.5424 69.092 27.6024 69.5019 28.7473 69.5019C30.6271 69.5161 31.7154 68.979 33.9062 66.9578C34.3302 66.5621 34.9521 66.1098 35.2913 65.9402C36.3655 65.4031 36.8743 65.6292 39.0651 67.6221C40.9308 69.3182 42.5138 69.7987 44.5491 69.2616C45.5809 68.9931 46.4713 68.4277 47.9695 67.0991C48.5914 66.5479 49.3688 65.9543 49.6939 65.7988C50.6126 65.3607 51.1497 65.5868 52.8599 67.1698C54.98 69.1344 56.4499 69.6857 58.4004 69.2758C59.7008 69.0072 60.5912 68.4843 62.0187 67.184C64.3508 65.0497 64.9586 65.0356 67.0504 67.0285C68.3649 68.2864 69.5098 69.0072 70.4709 69.2051C71.4461 69.4171 73.4814 69.2051 74.3718 68.8094C75.1209 68.4701 77.0856 66.7882 77.3824 66.2228C77.7923 65.4031 77.0714 64.2582 76.1386 64.2582C75.5732 64.2582 75.234 64.4561 74.3012 65.3465C72.9443 66.6186 71.8701 66.9295 70.7394 66.3783C70.4143 66.2228 69.5946 65.5868 68.902 64.979C68.2094 64.3572 67.2624 63.6363 66.7819 63.3819C66.0045 62.972 65.8066 62.9296 64.789 62.9296C63.206 62.9296 62.3862 63.3395 60.1389 65.29C57.8916 67.2264 57.0294 67.184 54.6267 64.9508C53.1284 63.5515 52.3087 63.0992 51.0366 62.9155C49.4536 62.7035 48.0261 63.3395 45.8918 65.2193C44.6056 66.3642 44.0403 66.661 43.2064 66.661C42.4431 66.661 41.9202 66.3642 40.6905 65.2052C39.4891 64.0745 38.2029 63.1982 37.4538 62.9862C36.7613 62.7883 35.5175 62.8307 34.7966 63.0568Z" fill="white"/>
</svg>
