<svg width="431" height="188" viewBox="0 0 431 188" fill="none" xmlns="http://www.w3.org/2000/svg">
<path d="M40.8805 130.471L35.0696 51.0563H0.204529L11.8262 182.769H44.7544L87.3673 101.417L97.0521 182.769H126.106L170.656 78.1736H181.609C188.96 78.1736 194.464 84.9122 192.997 92.115L174.53 182.769H209.395L229.298 78.6642C232.037 64.3366 221.055 51.0563 206.468 51.0563H151.287L118.359 130.471L108.674 51.0563H79.6195L40.8805 130.471Z" fill="black" fill-opacity="0.05"/>
<path d="M236.513 20.0651C236.513 30.7625 227.841 39.4346 217.143 39.4346C206.446 39.4346 197.774 30.7625 197.774 20.0651C197.774 9.36758 206.446 0.695557 217.143 0.695557C227.841 0.695557 236.513 9.36758 236.513 20.0651Z" fill="black" fill-opacity="0.05"/>
<path d="M306.243 4.56946H271.378L240.347 154.824C237.368 169.247 248.383 182.769 263.11 182.769H294.621L300.432 155.652H273.315L306.243 4.56946Z" fill="black" fill-opacity="0.05"/>
<path fill-rule="evenodd" clip-rule="evenodd" d="M337.002 182.891C365.06 196.856 402.699 178.256 421.071 141.346C439.443 104.435 431.591 63.1919 403.533 49.2262C375.475 35.2604 337.836 53.8607 319.464 90.7712C301.092 127.682 308.944 168.925 337.002 182.891ZM353.168 153.123C365.688 158.659 383.415 146.012 392.762 124.875C402.11 103.737 399.539 82.1131 387.02 76.5766C374.5 71.0401 356.773 83.6872 347.426 104.825C338.078 125.963 340.649 147.586 353.168 153.123Z" fill="black" fill-opacity="0.05"/>
</svg>
