<svg width="100" height="100" viewBox="0 0 100 100" fill="none" xmlns="http://www.w3.org/2000/svg">
<circle cx="50" cy="50" r="50" fill="#1A2F5A"/>
<path d="M36.2761 26.4777C35.7608 26.6709 35.4548 27.1057 35.1488 28.1041C34.6174 29.8272 34.7623 31.1799 35.6319 32.2749C36.0345 32.7902 36.0345 33.37 35.6319 34.5294C35.2616 35.5923 35.4065 36.1237 36.1956 36.494C36.5981 36.6873 36.7109 36.6873 37.0651 36.494C37.7254 36.1398 38.2407 34.8998 38.3373 33.5149C38.4178 32.2266 38.2407 31.5986 37.6127 30.8256C37.1618 30.262 37.1457 29.8594 37.5644 28.6033C37.9347 27.5083 37.8864 27.154 37.2906 26.687C36.8719 26.365 36.6948 26.3167 36.2761 26.4777Z" fill="white"/>
<path d="M49.7064 26.5421C49.2394 26.7836 48.9173 27.3955 48.6113 28.6677C48.2732 30.0365 48.3859 30.9383 49.0461 31.9528C49.5937 32.8224 49.6581 33.531 49.2555 34.4972C48.9173 35.3024 48.9334 35.7371 49.3199 36.1397C50.1251 37.0093 51.0591 36.655 51.5744 35.2701C52.1219 33.8369 52.1702 32.7258 51.7354 31.7113C51.5422 31.2604 51.2845 30.7934 51.1557 30.6968C50.8658 30.4552 50.8819 29.3763 51.1718 28.5389C51.3006 28.1846 51.4133 27.7337 51.4133 27.5566C51.4133 26.7836 50.4149 26.1878 49.7064 26.5421Z" fill="white"/>
<path d="M62.8307 26.6709C62.2349 27.1379 61.8001 28.5067 61.8001 29.9399C61.8001 31.0671 61.8484 31.2282 62.3315 31.9045C62.9112 32.7419 62.9917 33.4344 62.6053 34.3684C62.1222 35.5117 62.3637 36.3008 63.2655 36.5745C64.3605 36.9127 65.1657 35.4795 65.1818 33.1928C65.1818 31.7757 65.1657 31.6791 64.6665 30.9866C64.0385 30.1331 64.0224 29.9399 64.4572 28.6999C64.8759 27.4922 64.8597 27.3955 64.3122 26.8319C63.7647 26.2844 63.3621 26.2522 62.8307 26.6709Z" fill="white"/>
<path d="M28.9329 35.6566C28.6108 35.8821 28.0955 37.0737 27.9184 38.0238C27.709 39.1994 27.9023 40.1817 28.5786 41.2284L29.0778 42.0175L28.7075 43.2897C28.2888 44.739 28.3854 45.2865 29.0778 45.4636C29.8991 45.6569 30.3661 45.4797 30.7526 44.8034C31.59 43.2897 31.5739 41.0835 30.6882 39.924C30.35 39.4731 30.3017 39.2638 30.3661 38.6358C30.4144 38.2171 30.5433 37.5729 30.656 37.1865C30.8492 36.5906 30.8331 36.4296 30.6238 36.0592C30.4466 35.721 30.2534 35.6083 29.7542 35.5761C29.3999 35.56 29.0295 35.5922 28.9329 35.6566Z" fill="white"/>
<path d="M42.3632 35.8177C41.7191 36.5423 41.2682 38.5875 41.4936 39.7791C41.558 40.0851 41.8157 40.6487 42.0733 41.0352C42.6209 41.8404 42.6692 42.2913 42.3149 43.2736C41.7996 44.7229 42.1377 45.5281 43.2328 45.5281C44.1346 45.5281 44.7304 44.578 44.9075 42.8066C45.0525 41.5505 44.9075 40.8742 44.3278 40.0368C43.7803 39.2316 43.732 38.7807 44.0863 37.7984C44.4083 36.8805 44.3922 36.1398 44.038 35.8177C43.6354 35.4634 42.6692 35.4634 42.3632 35.8177Z" fill="white"/>
<path d="M55.6969 35.7854C55.2621 36.2202 54.7629 37.8306 54.7629 38.8451C54.7629 39.8274 54.9561 40.4393 55.6163 41.47C55.9545 41.9853 55.9545 42.0175 55.6808 42.9998C55.2299 44.6584 55.2299 44.7712 55.6002 45.1577C56.0189 45.6247 57.0496 45.673 57.4038 45.2382C57.7581 44.8195 58.1929 43.5473 58.2895 42.5972C58.3861 41.5505 58.1446 40.5521 57.6132 39.924C57.1462 39.3765 57.0979 38.7002 57.4521 37.7179C57.7742 36.8322 57.7581 36.1236 57.4038 35.8176C57.0335 35.4795 56.0189 35.4634 55.6969 35.7854Z" fill="white"/>
<path d="M69.562 35.7371C68.6924 36.4135 68.3059 39.4087 68.95 40.6648C69.1272 41.0191 69.3526 41.3572 69.4492 41.4217C69.6908 41.5666 69.6425 42.8871 69.3687 43.5473C69.0466 44.3203 69.0628 44.8195 69.4492 45.206C69.8679 45.6247 70.7858 45.6408 71.2206 45.206C71.6554 44.7712 72.0902 43.2252 72.0902 42.0658C72.1063 41.2767 72.0258 40.9547 71.6232 40.2944C70.8985 39.0867 70.8824 39.0061 71.2206 37.9111C71.6232 36.6389 71.6232 36.2685 71.2206 35.866C70.8502 35.4956 69.9807 35.4312 69.562 35.7371Z" fill="white"/>
<path d="M28.3854 48.9259C26.0182 49.248 23.8281 49.7794 23.4255 50.1176C22.9585 50.5201 22.9102 51.1321 23.3128 51.744C23.5704 52.1305 23.651 52.1627 24.4078 52.0822C24.8748 52.0339 26.0504 51.8406 27.0166 51.6474C28.3049 51.3897 29.416 51.2931 31.123 51.277C33.8606 51.2609 34.8429 51.5025 36.0667 52.4687C38.128 54.0951 39.4807 54.5782 42.1538 54.5943C43.3938 54.5943 44.4566 54.4977 45.6644 54.2401C47.2747 53.918 47.9189 53.7247 50.6887 52.7746C53.2491 51.8889 56.8402 51.2931 59.6583 51.2931C62.5247 51.2931 63.4909 51.583 64.9725 52.8874C66.0675 53.8375 67.5812 54.4011 69.7069 54.6426C71.6554 54.852 76.0194 54.0307 76.6636 53.3222C77.0984 52.8229 77.1145 52.2915 76.6958 51.8567C76.1966 51.3092 75.8423 51.2931 74.2481 51.6796C73.0725 51.9695 72.2995 52.05 70.5765 52.05C68.0965 52.05 67.5812 51.8889 66.148 50.6973C65.7132 50.3269 64.9725 49.8599 64.5377 49.6506C63.4587 49.1353 61.3653 48.7488 59.6422 48.7488C56.7758 48.7488 52.2185 49.57 49.4809 50.6007C46.4535 51.7118 43.8125 52.211 41.5097 52.0983C39.8188 52.0017 38.9654 51.6957 37.8542 50.7295C36.8236 49.8277 35.5514 49.2641 33.9733 48.9742C32.5401 48.7327 30.044 48.7005 28.3854 48.9259Z" fill="white"/>
<path d="M28.6269 55.3351C26.8233 55.5605 23.9891 56.1564 23.5865 56.414C22.9907 56.8005 22.8458 57.3963 23.2001 57.9922C23.4738 58.443 23.5704 58.4914 24.2951 58.4753C24.7299 58.4753 25.9538 58.2981 27.0166 58.1049C29.8347 57.5896 31.8798 57.4929 33.5385 57.8311C34.9073 58.1049 35.4226 58.3625 37.1457 59.6991C38.3212 60.6009 39.3357 60.8747 41.864 60.9552C44.5694 61.0357 46.0348 60.7781 49.8674 59.5059C52.605 58.6202 54.3925 58.2015 57.0979 57.8472C59.3201 57.5574 60.383 57.5413 61.5585 57.7667C63.2172 58.0727 63.652 58.2659 64.6504 59.0711C66.5989 60.6492 67.7101 61.0035 70.657 60.9874C72.9115 60.9874 75.6169 60.5043 76.4381 59.9729C77.2594 59.4254 77.1145 58.2981 76.1966 57.9116C75.8101 57.7667 75.5524 57.7667 74.7956 57.976C72.1385 58.7007 69.0466 58.7651 67.5973 58.1049C67.1625 57.9116 66.5828 57.5413 66.309 57.2997C65.5361 56.575 64.586 56.0436 63.3138 55.641C62.251 55.319 61.8162 55.2707 59.3846 55.2868C55.874 55.2868 52.7982 55.8504 49.1589 57.1387C45.9543 58.282 43.9574 58.6524 41.6385 58.5397C39.8027 58.443 39.0298 58.1693 37.8059 57.1387C36.7914 56.2852 36.3244 56.0275 35.0039 55.641C33.78 55.2868 30.4466 55.1257 28.6269 55.3351Z" fill="white"/>
<path d="M28.8685 61.7442C23.8925 62.5333 23.2323 62.7427 23.0229 63.5478C22.8941 64.047 23.3289 64.8361 23.812 64.9488C24.0535 65.0133 24.9714 64.9166 25.9538 64.7234C28.7719 64.1598 31.2679 63.9665 32.9105 64.1759C34.6174 64.4174 35.4387 64.7556 36.5981 65.7218C38.3051 67.1389 40.7689 67.7186 43.7803 67.4127C45.7127 67.2033 47.2747 66.8329 50.0445 65.8989C54.0382 64.5624 58.5472 63.8699 61.2365 64.192C62.9273 64.4013 63.7647 64.7395 64.8597 65.6574C66.1802 66.7685 67.1303 67.155 69.2077 67.4449C71.5427 67.7508 76.0678 66.994 76.6958 66.1727C77.0984 65.6735 77.0984 65.1743 76.6958 64.7395C76.1966 64.192 75.8101 64.1598 74.3125 64.5624C73.1691 64.8522 72.4928 64.9327 70.657 64.9327C68.0965 64.9327 67.5812 64.7878 66.148 63.5961C64.5377 62.2435 62.4764 61.6315 59.5939 61.6315C56.7919 61.6315 51.977 62.5172 49.3521 63.5156C46.3246 64.659 44.2151 65.0616 41.8479 64.981C39.7866 64.9166 39.0781 64.659 37.822 63.58C36.2761 62.2274 34.1021 61.6154 31.0908 61.6476C30.0923 61.6637 29.0939 61.712 28.8685 61.7442Z" fill="white"/>
<path d="M28.3854 68.2501C26.0182 68.5721 23.8281 69.1035 23.4255 69.4417C22.9585 69.8443 22.9102 70.4562 23.3128 71.0682C23.5704 71.4547 23.651 71.4869 24.4078 71.4063C24.8748 71.358 26.0504 71.1648 27.0166 70.9715C28.3049 70.7139 29.416 70.6173 31.123 70.6012C33.8606 70.5851 34.8429 70.8266 36.0667 71.7928C38.128 73.4193 39.4807 73.9024 42.1538 73.9185C43.3938 73.9185 44.4566 73.8219 45.6644 73.5642C47.2747 73.2421 47.9189 73.0489 50.6887 72.0988C53.2491 71.2131 56.8402 70.6173 59.6583 70.6173C62.5247 70.6173 63.4909 70.9071 64.9725 72.2115C66.0675 73.1616 67.5812 73.7252 69.7069 73.9668C71.6554 74.1761 76.0194 73.3549 76.6636 72.6463C77.0984 72.1471 77.1145 71.6157 76.6958 71.1809C76.1966 70.6334 75.8423 70.6173 74.2481 71.0038C73.0725 71.2936 72.2995 71.3741 70.5765 71.3741C68.0965 71.3741 67.5812 71.2131 66.148 70.0214C65.7132 69.6511 64.9725 69.1841 64.5377 68.9747C63.4587 68.4594 61.3653 68.0729 59.6422 68.0729C56.7758 68.0729 52.2185 68.8942 49.4809 69.9248C46.4535 71.036 43.8125 71.5352 41.5097 71.4224C39.8188 71.3258 38.9654 71.0199 37.8542 70.0537C36.8236 69.1519 35.5514 68.5882 33.9733 68.2984C32.5401 68.0568 30.044 68.0246 28.3854 68.2501Z" fill="white"/>
</svg>
