<svg width="145" height="190" viewBox="0 0 145 190" fill="none" xmlns="http://www.w3.org/2000/svg">
<rect width="145" height="90" fill="white" fill-opacity="0.59"/>
<path d="M24.0889 30.1116C23.7914 30.2055 23.5486 30.3856 23.024 30.8868C22.6482 31.2469 22.2645 31.7011 22.1706 31.889C21.967 32.2962 21.9435 32.8443 22.1157 33.2593C22.2019 33.4628 23.9636 35.2794 27.9726 39.2884L33.7042 45.02L27.9726 50.7594C24.8249 53.9071 22.194 56.6006 22.1236 56.7415C21.9513 57.0861 21.9591 57.7986 22.1471 58.1588C22.2254 58.3154 22.609 58.7539 23.0005 59.1297C23.5721 59.6778 23.7835 59.8266 24.1124 59.9284C24.6449 60.085 25.1851 59.9832 25.5766 59.6387C25.7332 59.4977 28.8809 56.3657 32.5689 52.6778C36.7344 48.52 39.334 45.8578 39.4201 45.6777C39.6316 45.2236 39.5611 44.5267 39.2479 44.0804C39.1148 43.8846 35.9593 40.69 32.24 36.9785C25.6706 30.4248 25.467 30.229 25.0598 30.1116C24.5587 29.9628 24.5744 29.9628 24.0889 30.1116Z" fill="black" fill-opacity="0.59"/>
<rect width="145" height="90" transform="matrix(-1 0 0 1 145 100)" fill="white" fill-opacity="0.59"/>
<path d="M36.9111 130.112C37.2086 130.206 37.4514 130.386 37.976 130.887C38.3518 131.247 38.7355 131.701 38.8294 131.889C39.033 132.296 39.0565 132.844 38.8843 133.259C38.7981 133.463 37.0364 135.279 33.0274 139.288L27.2958 145.02L33.0274 150.759C36.1751 153.907 38.806 156.601 38.8764 156.742C39.0487 157.086 39.0409 157.799 38.8529 158.159C38.7746 158.315 38.391 158.754 37.9995 159.13C37.4279 159.678 37.2165 159.827 36.8876 159.928C36.3551 160.085 35.8149 159.983 35.4234 159.639C35.2668 159.498 32.1191 156.366 28.4311 152.678C24.2656 148.52 21.666 145.858 21.5799 145.678C21.3684 145.224 21.4389 144.527 21.7521 144.08C21.8852 143.885 25.0407 140.69 28.76 136.979C35.3294 130.425 35.533 130.229 35.9402 130.112C36.4413 129.963 36.4256 129.963 36.9111 130.112Z" fill="black" fill-opacity="0.59"/>
</svg>
