<svg width="165" height="32" viewBox="0 0 165 32" fill="none" xmlns="http://www.w3.org/2000/svg">
<path d="M60 31.6025C68.2843 31.6025 75 24.8868 75 16.6025C75 8.31827 68.2843 1.60254 60 1.60254C51.7157 1.60254 45 8.31827 45 16.6025C45 24.8868 51.7157 31.6025 60 31.6025Z" fill="white"/>
<path d="M60 8.8582C62.5222 8.8582 62.82 8.86932 63.8156 8.91376C64.415 8.92104 65.0087 9.03077 65.5711 9.2382C65.98 9.39139 66.3503 9.63265 66.6556 9.94487C66.9693 10.2498 67.2107 10.6211 67.3622 11.0315C67.5706 11.5929 67.6804 12.1861 67.6867 12.7849C67.7333 13.7804 67.7422 14.0804 67.7422 16.6026C67.7422 19.1249 67.7422 19.4226 67.6867 20.4182C67.6804 21.017 67.5706 21.6102 67.3622 22.1715C67.2052 22.5788 66.9647 22.9487 66.6562 23.2575C66.3478 23.5664 65.9782 23.8073 65.5711 23.9649C65.0087 24.1723 64.415 24.282 63.8156 24.2893C62.82 24.3338 62.5222 24.3449 60 24.3449C57.4778 24.3449 57.18 24.3338 56.1845 24.2893C55.5851 24.282 54.9913 24.1723 54.4289 23.9649C54.0218 23.8073 53.6522 23.5664 53.3438 23.2575C53.0353 22.9487 52.7948 22.5788 52.6378 22.1715C52.4294 21.6102 52.3196 21.017 52.3133 20.4182C52.2667 19.4226 52.2578 19.1226 52.2578 16.6026C52.2578 14.0826 52.2578 13.7804 52.3133 12.7849C52.3196 12.1861 52.4294 11.5929 52.6378 11.0315C52.7893 10.6211 53.0307 10.2498 53.3444 9.94487C53.6497 9.63265 54.02 9.39139 54.4289 9.2382C54.9913 9.03077 55.5851 8.92104 56.1845 8.91376C57.18 8.86932 57.4778 8.8582 60 8.8582ZM60 7.1582C57.4356 7.1582 57.1111 7.1582 56.1067 7.21376C55.3226 7.23139 54.5472 7.38166 53.8133 7.6582C53.1857 7.90047 52.6157 8.27138 52.14 8.74709C51.6643 9.2228 51.2934 9.7928 51.0511 10.4204C50.7737 11.1533 50.6234 11.9281 50.6067 12.7115C50.56 13.7204 50.5489 14.0449 50.5489 16.6071C50.5489 19.1693 50.5489 19.496 50.6067 20.5004C50.6238 21.2845 50.7741 22.06 51.0511 22.7938C51.2939 23.4208 51.665 23.9903 52.1407 24.4656C52.6163 24.9408 53.1861 25.3115 53.8133 25.5538C54.5469 25.8314 55.3225 25.9817 56.1067 25.9982C57.1133 26.0449 57.44 26.056 60 26.056C62.56 26.056 62.8889 26.0449 63.8933 25.9982C64.6775 25.9817 65.4531 25.8314 66.1867 25.5538C66.8139 25.3115 67.3837 24.9408 67.8594 24.4656C68.335 23.9903 68.7061 23.4208 68.9489 22.7938C69.2259 22.06 69.3762 21.2845 69.3933 20.5004C69.44 19.4938 69.4511 19.1671 69.4511 16.6071C69.4511 14.0471 69.4511 13.7182 69.3933 12.7115C69.3766 11.9281 69.2263 11.1533 68.9489 10.4204C68.7066 9.7928 68.3357 9.2228 67.86 8.74709C67.3843 8.27138 66.8143 7.90047 66.1867 7.6582C65.4528 7.38166 64.6774 7.23139 63.8933 7.21376C62.8867 7.16709 62.56 7.1582 60 7.1582Z" fill="#1A2F5A"/>
<path d="M60 11.7515C59.0404 11.751 58.1023 12.0352 57.3042 12.5679C56.5062 13.1007 55.8841 13.8582 55.5165 14.7446C55.149 15.631 55.0527 16.6065 55.2396 17.5476C55.4265 18.4888 55.8884 19.3534 56.5667 20.032C57.2451 20.7107 58.1094 21.1729 59.0505 21.3603C59.9916 21.5477 60.9671 21.4517 61.8537 21.0846C62.7402 20.7175 63.498 20.0957 64.0311 19.2979C64.5643 18.5001 64.8489 17.5621 64.8489 16.6026C64.8492 15.9656 64.7239 15.3349 64.4804 14.7463C64.2368 14.1578 63.8797 13.623 63.4294 13.1725C62.9792 12.722 62.4445 12.3646 61.8561 12.1208C61.2676 11.877 60.6369 11.7515 60 11.7515ZM60 19.7515C59.3771 19.7515 58.7682 19.5667 58.2503 19.2206C57.7324 18.8745 57.3288 18.3826 57.0906 17.8071C56.8523 17.2316 56.7901 16.5983 56.9118 15.9874C57.0334 15.3766 57.3336 14.8155 57.7742 14.3752C58.2148 13.9349 58.776 13.6352 59.387 13.5139C59.998 13.3927 60.6312 13.4554 61.2065 13.694C61.7819 13.9327 62.2735 14.3366 62.6193 14.8548C62.965 15.3729 63.1493 15.9819 63.1489 16.6048C63.1477 17.4392 62.8154 18.239 62.225 18.8285C61.6346 19.4181 60.8343 19.7492 60 19.7492V19.7515Z" fill="#1A2F5A"/>
<path d="M65.0422 12.6937C65.6681 12.6937 66.1755 12.1863 66.1755 11.5603C66.1755 10.9344 65.6681 10.427 65.0422 10.427C64.4163 10.427 63.9088 10.9344 63.9088 11.5603C63.9088 12.1863 64.4163 12.6937 65.0422 12.6937Z" fill="#1A2F5A"/>
<path d="M150 31.6025C158.284 31.6025 165 24.8868 165 16.6025C165 8.31826 158.284 1.60254 150 1.60254C141.716 1.60254 135 8.31826 135 16.6025C135 24.8868 141.716 31.6025 150 31.6025Z" fill="white"/>
<path d="M146.969 25.2404C154.302 25.2404 158.302 19.1715 158.302 13.9071C158.302 13.736 158.302 13.5649 158.302 13.3938C159.081 12.8295 159.754 12.1313 160.289 11.3315C159.562 11.6522 158.791 11.8634 158.002 11.9582C158.834 11.4599 159.456 10.6765 159.753 9.75377C158.972 10.2184 158.117 10.5454 157.225 10.7204C156.678 10.1384 155.969 9.73404 155.19 9.55973C154.411 9.38543 153.597 9.44923 152.855 9.74286C152.112 10.0365 151.475 10.5464 151.026 11.2065C150.577 11.8666 150.336 12.6464 150.336 13.4449C150.334 13.7508 150.369 14.0558 150.438 14.3538C148.854 14.2744 147.305 13.8628 145.891 13.1457C144.477 12.4287 143.229 11.4221 142.229 10.1915C141.719 11.0684 141.563 12.1067 141.792 13.0948C142.021 14.0829 142.618 14.9465 143.462 15.5093C142.83 15.49 142.211 15.3193 141.658 15.0115C141.657 15.0286 141.657 15.0456 141.658 15.0627C141.658 15.9823 141.976 16.8735 142.559 17.5851C143.141 18.2968 143.952 18.785 144.853 18.9671C144.267 19.1263 143.652 19.1498 143.056 19.036C143.312 19.8264 143.807 20.5174 144.474 21.0132C145.141 21.509 145.945 21.7849 146.776 21.8027C145.364 22.9092 143.622 23.5094 141.829 23.5071C141.512 23.5077 141.195 23.4891 140.88 23.4515C142.701 24.6211 144.82 25.2421 146.985 25.2404" fill="#1A2F5A"/>
<path d="M105 31.6025C113.284 31.6025 120 24.8868 120 16.6025C120 8.31826 113.284 1.60254 105 1.60254C96.7157 1.60254 90 8.31826 90 16.6025C90 24.8868 96.7157 31.6025 105 31.6025Z" fill="white"/>
<path d="M106.16 14.5559C106.407 14.2781 106.604 13.9959 106.862 13.7581C107.228 13.4016 107.661 13.1214 108.136 12.9337C108.611 12.746 109.118 12.6546 109.629 12.6648C110.217 12.6546 110.804 12.7257 111.373 12.8759C112.676 13.2537 113.431 14.1492 113.793 15.4203C114.033 16.3729 114.142 17.3539 114.116 18.3359C114.116 20.4092 114.116 22.4803 114.116 24.5581C114.116 24.7514 114.062 24.8025 113.871 24.8003C112.801 24.7914 111.734 24.7914 110.669 24.8003C110.48 24.8003 110.447 24.7448 110.447 24.5781C110.447 22.6062 110.447 20.6344 110.447 18.6625C110.458 18.1672 110.399 17.6728 110.273 17.1937C110.018 16.3048 109.384 15.8603 108.458 15.907C107.193 15.9737 106.533 16.6025 106.373 17.8892C106.334 18.1958 106.315 18.5046 106.316 18.8137C106.316 20.7314 106.316 22.6492 106.316 24.567C106.316 24.7581 106.267 24.8137 106.071 24.8114C104.998 24.8114 103.922 24.8114 102.847 24.8114C102.673 24.8114 102.624 24.767 102.624 24.5892C102.624 20.7937 102.624 16.9974 102.624 13.2003C102.624 13.0114 102.684 12.9781 102.862 12.9781C103.884 12.987 104.906 12.987 105.927 12.9781C106.113 12.9781 106.162 13.0381 106.149 13.2159C106.153 13.647 106.16 14.1003 106.16 14.5559Z" fill="#1A2F5A"/>
<path d="M100.311 18.8936C100.311 20.7714 100.311 22.6491 100.311 24.5269C100.311 24.7358 100.26 24.8003 100.044 24.798C98.9755 24.7847 97.9089 24.798 96.8422 24.798C96.6711 24.798 96.62 24.7558 96.62 24.5758C96.62 20.7714 96.62 16.9684 96.62 13.1669C96.62 13.0091 96.66 12.9447 96.8267 12.9558C97.9089 12.9558 98.9911 12.9558 100.073 12.9558C100.282 12.9558 100.309 13.0336 100.309 13.2136C100.307 15.1069 100.308 17.0003 100.311 18.8936Z" fill="#1A2F5A"/>
<path d="M100.604 9.18934C100.607 9.61148 100.483 10.0248 100.25 10.3768C100.017 10.7288 99.685 11.0037 99.2955 11.1666C98.9061 11.3294 98.477 11.373 98.0628 11.2916C97.6485 11.2103 97.2678 11.0078 96.9688 10.7097C96.6698 10.4117 96.4661 10.0316 96.3834 9.61759C96.3008 9.2036 96.343 8.77439 96.5047 8.38441C96.6663 7.99443 96.9401 7.66124 97.2914 7.42712C97.6427 7.19299 98.0556 7.06847 98.4778 7.06934C99.0397 7.07224 99.578 7.29632 99.976 7.69308C100.374 8.08984 100.6 8.62737 100.604 9.18934Z" fill="#1A2F5A"/>
<path d="M30 15.6022C29.9999 12.7352 29.1782 9.92823 27.6322 7.51379C26.0862 5.09935 23.8806 3.17856 21.2766 1.97889C18.6727 0.779214 15.7795 0.350919 12.9396 0.744726C10.0998 1.13853 7.4323 2.33794 5.25306 4.20091C3.07383 6.06388 1.47413 8.51237 0.643435 11.2564C-0.187262 14.0004 -0.214163 16.925 0.565917 19.6839C1.346 22.4427 2.90038 24.9202 5.04498 26.823C7.18958 28.7257 9.83456 29.974 12.6667 30.42V19.9466H8.85111V15.6022H12.66V12.2955C12.66 8.53773 14.9 6.45995 18.3267 6.45995C19.4516 6.47569 20.5738 6.57373 21.6844 6.75329V10.4444H19.7933C17.9289 10.4444 17.3489 11.6022 17.3489 12.7866V15.6022H21.5089L20.8422 19.9377H17.3444V30.42C20.8724 29.8608 24.0852 28.0613 26.405 25.3451C28.7249 22.6289 29.9996 19.1742 30 15.6022Z" fill="white"/>
<path d="M20.8378 19.9466L21.5045 15.6111H17.3445V12.7866C17.3445 11.6022 17.9245 10.4444 19.7889 10.4444H21.68V6.7533C20.5694 6.57374 19.4472 6.4757 18.3222 6.45996C14.8956 6.45996 12.6556 8.53774 12.6556 12.2955V15.6022H8.85114V19.9466H12.66V30.4289C14.2135 30.6718 15.7954 30.6718 17.3489 30.4289V19.9466H20.8378Z" fill="#1A2F5A"/>
</svg>
