<svg width="20" height="20" viewBox="0 0 20 20" fill="none" xmlns="http://www.w3.org/2000/svg">
<circle cx="10" cy="10" r="10" fill="white"/>
<path d="M14.6454 4.69126C14.9853 4.7609 15.2555 5.03391 15.3224 5.38214C15.3558 5.55486 15.3085 6.40453 15.236 6.90598C14.8182 9.87287 13.077 12.4553 10.4472 14.0182C9.43598 14.6171 8.11829 15.074 6.89532 15.2467C6.39387 15.3191 5.5442 15.3665 5.37148 15.3331C5.08732 15.2773 4.86446 15.1018 4.7391 14.8344L4.66666 14.6784V13.5223C4.66666 12.4692 4.67224 12.355 4.71681 12.2547C4.83381 11.9901 5.00096 11.8313 5.24333 11.7477C5.31297 11.7254 5.55255 11.6948 5.80885 11.6809C6.31587 11.653 6.71424 11.5861 7.22404 11.4469C7.84249 11.2769 7.90099 11.2936 8.63088 11.8452C8.92617 12.0709 9.23818 12.3049 9.32176 12.3634L9.47219 12.472L9.61984 12.394C10.6032 11.8619 11.4306 11.1153 12.024 10.2211C12.2301 9.90909 12.453 9.53021 12.453 9.48843C12.453 9.46057 11.9376 8.76412 11.5031 8.20138C11.4083 8.07602 11.3387 7.86708 11.3387 7.69715C11.3387 7.62472 11.3693 7.46314 11.4055 7.33499C11.5643 6.77226 11.6368 6.36553 11.6591 5.87523C11.6702 5.67465 11.6897 5.44343 11.7064 5.35985C11.7733 5.00884 12.0268 4.75812 12.3806 4.69404C12.5756 4.65783 14.4672 4.65783 14.6454 4.69126Z" fill="#1A2F5A"/>
</svg>
