<svg width="20" height="20" viewBox="0 0 20 20" fill="none" xmlns="http://www.w3.org/2000/svg">
<circle cx="10" cy="10" r="10" fill="white"/>
<path d="M5.31926 6.04363C4.99157 6.15749 4.76107 6.44074 4.6972 6.80454C4.64166 7.11279 4.74719 7.40438 4.99157 7.63488C5.17485 7.80428 9.55704 10.7035 9.707 10.7535C9.88196 10.8091 10.1208 10.8091 10.2957 10.7535C10.4457 10.7035 14.8279 7.80428 15.0112 7.63488C15.2556 7.40438 15.3611 7.11279 15.3055 6.80454C15.2889 6.70456 15.25 6.57404 15.2195 6.51295C15.1389 6.35743 14.914 6.14082 14.7557 6.06862L14.6252 6.00752L10.043 6.00197C5.72471 5.99642 5.45256 5.99919 5.31926 6.04363Z" fill="#1A2F5A"/>
<path d="M4.675 10.6926C4.68333 12.9198 4.68888 13.1837 4.73054 13.292C4.79719 13.4669 4.91382 13.6252 5.06656 13.7474C5.32483 13.9501 4.9777 13.9362 10.0014 13.9362C15.0556 13.9362 14.6807 13.9529 14.9529 13.7335C15.1389 13.5808 15.2639 13.3725 15.3028 13.1476C15.3222 13.0309 15.3333 12.1922 15.3333 10.5954V8.21828L13.0506 9.7401C11.7926 10.576 10.729 11.2758 10.6818 11.2953C10.2374 11.4924 9.71257 11.4869 9.29602 11.2786C9.22104 11.2397 8.14909 10.5371 6.9133 9.71233L4.66667 8.2155L4.675 10.6926Z" fill="#1A2F5A"/>
</svg>
